<?xml version="1.0" encoding="utf-8"?>
<!-- Generator: Adobe Illustrator 13.0.2, SVG Export Plug-In . SVG Version: 6.00 Build 14948)  -->
<svg width="24" height="20" viewBox="0 0 24 20" fill="none" xmlns="http://www.w3.org/2000/svg">
    <path fill-rule="evenodd" clip-rule="evenodd"
          d="M11.9999 0C12.3297 0 12.6383 0.162624 12.8248 0.434679L14.3871 2.7143L17.038 3.49572C17.3543 3.58898 17.6043 3.83223 17.7063 4.1459C17.8082 4.45957 17.7489 4.80333 17.5478 5.06472L15.8625 7.25502L15.9385 10.0176C15.9475 10.3473 15.7935 10.6602 15.5266 10.8541C15.2598 11.048 14.9146 11.0978 14.6038 10.9873L11.9999 10.0613L9.39604 10.9873C9.08529 11.0978 8.74004 11.048 8.47321 10.8541C8.20638 10.6602 8.05231 10.3473 8.06137 10.0176L8.13735 7.25502L6.45209 5.06472C6.25096 4.80333 6.19166 4.45957 6.29358 4.1459C6.3955 3.83223 6.64553 3.58898 6.96189 3.49572L9.61272 2.7143L11.1751 0.434679C11.3615 0.162624 11.6701 0 11.9999 0ZM11.9999 2.76891L11.0614 4.13827C10.9314 4.328 10.7399 4.4671 10.5193 4.53214L8.92697 5.00154L9.9393 6.31725C10.0796 6.49954 10.1527 6.72462 10.1464 6.95454L10.1007 8.61401L11.6649 8.0578C11.8816 7.98073 12.1183 7.98073 12.335 8.0578L13.8991 8.61401L13.8535 6.95454C13.8471 6.72462 13.9203 6.49954 14.0605 6.31725L15.0729 5.00154L13.4805 4.53214C13.2599 4.4671 13.0684 4.328 12.9384 4.13827L11.9999 2.76891Z"
          fill="#8A8A8A"/>
    <path d="M3 1V3H5V1L3 1Z" fill="#8A8A8A"/>
    <path d="M19 1V3H21V1H19Z" fill="#8A8A8A"/>
    <path d="M20 16V18H22V16H20Z" fill="#8A8A8A"/>
    <path d="M2 18V16H4V18H2Z" fill="#8A8A8A"/>
    <path fill-rule="evenodd" clip-rule="evenodd" d="M20 10V12H22V10H24V8H22V6H20V8H18V10H20ZM20 10V8H22V10H20Z"
          fill="#8A8A8A"/>
    <path d="M2 12V10H4V12H2Z" fill="#8A8A8A"/>
    <path d="M4 8H6V10H4V8Z" fill="#8A8A8A"/>
    <path d="M2 8V6H4V8H2Z" fill="#8A8A8A"/>
    <path d="M2 8H0V10H2V8Z" fill="#8A8A8A"/>
    <path d="M11 12V20H13V12H11Z" fill="#8A8A8A"/>
    <path d="M18.8321 14.5547L17.8397 16.0432C17.2922 16.8645 17 17.8295 17 18.8167V20H15V18.8167C15 17.4347 15.4091 16.0836 16.1756 14.9338L17.1679 13.4453L18.8321 14.5547Z"
          fill="#8A8A8A"/>
    <path d="M6.16025 16.0432L5.16795 14.5547L6.83205 13.4453L7.82435 14.9338C8.59093 16.0836 9 17.4347 9 18.8167V20H7V18.8167C7 17.8295 6.70781 16.8645 6.16025 16.0432Z"
          fill="#8A8A8A"/>
</svg>
