<?xml version="1.0" encoding="utf-8"?>
<!-- Generator: Adobe Illustrator 13.0.2, SVG Export Plug-In . SVG Version: 6.00 Build 14948)  -->
<svg width="23" height="18" viewBox="0 0 23 18" fill="none" xmlns="http://www.w3.org/2000/svg">
	<path fill-rule="evenodd" clip-rule="evenodd" d="M16 0C13.5147 0 11.5 2.01472 11.5 4.5C11.5 6.98528 13.5147 9 16 9C18.4853 9 20.5 6.98528 20.5 4.5C20.5 2.01472 18.4853 0 16 0ZM13.5 4.5C13.5 3.11929 14.6193 2 16 2C17.3807 2 18.5 3.11929 18.5 4.5C18.5 5.88071 17.3807 7 16 7C14.6193 7 13.5 5.88071 13.5 4.5Z" fill="#8A8A8A"/>
	<path d="M16.0001 10C11.59 10 9 13.5344 9 17H11C11 14.4656 12.8602 12 16.0001 12C19.1399 12 21 14.4656 21 17H23C23 13.5344 20.4102 10 16.0001 10Z" fill="#8A8A8A"/>
	<path d="M0 18C0 14.6209 2.32886 11 6.50007 11C7.49694 11 8.40916 11.2134 9.21594 11.5968L8.35749 13.4032C7.8241 13.1497 7.20575 13 6.50007 13C3.75048 13 2 15.3791 2 18H0Z" fill="#8A8A8A"/>
	<path fill-rule="evenodd" clip-rule="evenodd" d="M6.5 2C4.29086 2 2.5 3.79086 2.5 6C2.5 8.20914 4.29086 10 6.5 10C8.70914 10 10.5 8.20914 10.5 6C10.5 3.79086 8.70914 2 6.5 2ZM4.5 6C4.5 4.89543 5.39543 4 6.5 4C7.60457 4 8.5 4.89543 8.5 6C8.5 7.10457 7.60457 8 6.5 8C5.39543 8 4.5 7.10457 4.5 6Z" fill="#8A8A8A"/>
</svg>

