<?xml version="1.0" encoding="UTF-8"?>
<svg xmlns="http://www.w3.org/2000/svg" xmlns:xlink="http://www.w3.org/1999/xlink" width="20px" height="20px" viewBox="0 0 20 20" version="1.1">
<g id="surface1">
<path style=" stroke:none;fill-rule:nonzero;fill:rgb(54.117647%,54.117647%,54.117647%);fill-opacity:1;" d="M 17.070312 16.015625 L 2.929688 16.015625 C 2.65625 16.015625 2.429688 15.792969 2.429688 15.515625 L 2.429688 3.964844 C 2.429688 3.691406 2.65625 3.464844 2.929688 3.464844 L 17.070312 3.464844 C 17.34375 3.464844 17.570312 3.691406 17.570312 3.964844 L 17.570312 15.515625 C 17.570312 15.792969 17.34375 16.015625 17.070312 16.015625 Z M 3.429688 15.015625 L 16.570312 15.015625 L 16.570312 4.464844 L 3.429688 4.464844 Z M 3.429688 15.015625 "/>
<path style=" stroke:none;fill-rule:nonzero;fill:rgb(54.117647%,54.117647%,54.117647%);fill-opacity:1;" d="M 5 5.5 C 4.722656 5.5 4.5 5.277344 4.5 5 L 4.5 2.929688 C 4.5 2.65625 4.722656 2.429688 5 2.429688 C 5.277344 2.429688 5.5 2.65625 5.5 2.929688 L 5.5 5 C 5.5 5.277344 5.277344 5.5 5 5.5 Z M 5 5.5 "/>
<path style=" stroke:none;fill-rule:nonzero;fill:rgb(54.117647%,54.117647%,54.117647%);fill-opacity:1;" d="M 15 5.5 C 14.722656 5.5 14.5 5.277344 14.5 5 L 14.5 2.929688 C 14.5 2.65625 14.722656 2.429688 15 2.429688 C 15.277344 2.429688 15.5 2.65625 15.5 2.929688 L 15.5 5 C 15.5 5.277344 15.277344 5.5 15 5.5 Z M 15 5.5 "/>
<path style=" stroke:none;fill-rule:nonzero;fill:rgb(54.117647%,54.117647%,54.117647%);fill-opacity:1;" d="M 16.199219 17.570312 L 3.804688 17.570312 C 3.046875 17.566406 2.433594 16.953125 2.429688 16.195312 L 2.429688 15 C 2.429688 14.722656 2.65625 14.5 2.929688 14.5 C 3.207031 14.5 3.429688 14.722656 3.429688 15 L 3.429688 16.195312 C 3.429688 16.402344 3.597656 16.570312 3.804688 16.570312 L 16.199219 16.570312 C 16.40625 16.570312 16.574219 16.402344 16.574219 16.195312 L 16.574219 15 C 16.574219 14.722656 16.796875 14.5 17.074219 14.5 C 17.351562 14.5 17.574219 14.722656 17.574219 15 L 17.574219 16.195312 C 17.574219 16.953125 16.957031 17.566406 16.199219 17.570312 Z M 16.199219 17.570312 "/>
<path style=" stroke:none;fill-rule:nonzero;fill:rgb(54.117647%,54.117647%,54.117647%);fill-opacity:1;" d="M 5 8 C 4.964844 8 4.933594 7.996094 4.898438 7.988281 C 4.867188 7.984375 4.835938 7.972656 4.808594 7.960938 C 4.777344 7.949219 4.746094 7.933594 4.71875 7.914062 C 4.691406 7.898438 4.667969 7.878906 4.644531 7.855469 C 4.621094 7.832031 4.601562 7.804688 4.582031 7.777344 C 4.5625 7.75 4.550781 7.722656 4.535156 7.691406 C 4.523438 7.660156 4.515625 7.632812 4.511719 7.601562 C 4.496094 7.535156 4.496094 7.464844 4.511719 7.398438 C 4.515625 7.367188 4.527344 7.335938 4.539062 7.308594 C 4.550781 7.277344 4.566406 7.246094 4.585938 7.21875 C 4.621094 7.164062 4.667969 7.117188 4.722656 7.082031 C 4.75 7.0625 4.777344 7.046875 4.808594 7.035156 C 4.929688 6.984375 5.070312 6.984375 5.191406 7.035156 C 5.222656 7.046875 5.25 7.0625 5.277344 7.082031 C 5.332031 7.117188 5.378906 7.164062 5.414062 7.21875 C 5.433594 7.246094 5.449219 7.277344 5.460938 7.308594 C 5.472656 7.335938 5.484375 7.367188 5.488281 7.398438 C 5.503906 7.464844 5.503906 7.535156 5.488281 7.601562 C 5.484375 7.632812 5.472656 7.664062 5.460938 7.691406 C 5.449219 7.722656 5.433594 7.753906 5.414062 7.78125 C 5.378906 7.835938 5.332031 7.882812 5.277344 7.917969 C 5.25 7.9375 5.222656 7.953125 5.191406 7.964844 C 5.160156 7.976562 5.128906 7.984375 5.097656 7.992188 C 5.066406 8 5.03125 8 5 8 Z M 5 8 "/>
<path style=" stroke:none;fill-rule:nonzero;fill:rgb(54.117647%,54.117647%,54.117647%);fill-opacity:1;" d="M 6.667969 8 C 6.632812 8 6.601562 7.996094 6.566406 7.988281 C 6.535156 7.984375 6.503906 7.972656 6.472656 7.960938 C 6.441406 7.949219 6.414062 7.933594 6.386719 7.914062 C 6.359375 7.898438 6.335938 7.878906 6.3125 7.855469 C 6.289062 7.832031 6.265625 7.804688 6.25 7.777344 C 6.230469 7.75 6.214844 7.722656 6.203125 7.691406 C 6.191406 7.660156 6.179688 7.628906 6.175781 7.597656 C 6.160156 7.53125 6.160156 7.464844 6.175781 7.398438 C 6.179688 7.367188 6.191406 7.335938 6.203125 7.304688 C 6.214844 7.273438 6.230469 7.246094 6.25 7.21875 C 6.285156 7.164062 6.332031 7.117188 6.386719 7.078125 C 6.414062 7.0625 6.441406 7.046875 6.472656 7.035156 C 6.503906 7.023438 6.535156 7.011719 6.566406 7.007812 C 6.632812 6.992188 6.699219 6.992188 6.765625 7.007812 C 6.796875 7.011719 6.828125 7.023438 6.859375 7.035156 C 6.890625 7.046875 6.917969 7.0625 6.945312 7.078125 C 6.972656 7.097656 7 7.117188 7.023438 7.140625 C 7.117188 7.238281 7.167969 7.367188 7.164062 7.5 C 7.167969 7.535156 7.164062 7.566406 7.15625 7.601562 C 7.148438 7.632812 7.140625 7.664062 7.128906 7.691406 C 7.117188 7.722656 7.101562 7.753906 7.082031 7.78125 C 7.0625 7.808594 7.042969 7.832031 7.019531 7.855469 C 6.996094 7.878906 6.972656 7.898438 6.945312 7.917969 C 6.917969 7.9375 6.886719 7.953125 6.859375 7.964844 C 6.828125 7.976562 6.796875 7.984375 6.765625 7.992188 C 6.734375 8 6.699219 8 6.667969 8 Z M 6.667969 8 "/>
<path style=" stroke:none;fill-rule:nonzero;fill:rgb(54.117647%,54.117647%,54.117647%);fill-opacity:1;" d="M 8.332031 8 C 8.300781 8 8.265625 7.996094 8.234375 7.988281 C 8.199219 7.984375 8.167969 7.972656 8.140625 7.960938 C 8.109375 7.949219 8.082031 7.933594 8.054688 7.914062 C 8.027344 7.898438 8 7.878906 7.976562 7.855469 C 7.882812 7.757812 7.832031 7.632812 7.832031 7.5 C 7.832031 7.464844 7.835938 7.433594 7.84375 7.398438 C 7.847656 7.367188 7.859375 7.335938 7.871094 7.308594 C 7.882812 7.277344 7.898438 7.246094 7.917969 7.21875 C 7.9375 7.191406 7.957031 7.167969 7.980469 7.144531 C 8.003906 7.121094 8.027344 7.101562 8.054688 7.082031 C 8.082031 7.0625 8.113281 7.046875 8.140625 7.035156 C 8.171875 7.023438 8.203125 7.015625 8.234375 7.007812 C 8.300781 6.996094 8.371094 6.996094 8.4375 7.007812 C 8.46875 7.015625 8.5 7.023438 8.53125 7.035156 C 8.558594 7.046875 8.589844 7.0625 8.617188 7.082031 C 8.644531 7.101562 8.667969 7.121094 8.691406 7.144531 C 8.714844 7.167969 8.734375 7.191406 8.753906 7.21875 C 8.773438 7.246094 8.785156 7.277344 8.800781 7.308594 C 8.8125 7.335938 8.820312 7.367188 8.828125 7.398438 C 8.835938 7.433594 8.839844 7.464844 8.839844 7.5 C 8.839844 7.632812 8.785156 7.761719 8.691406 7.855469 C 8.667969 7.875 8.644531 7.898438 8.617188 7.914062 C 8.589844 7.933594 8.558594 7.949219 8.53125 7.960938 C 8.5 7.972656 8.46875 7.984375 8.4375 7.988281 C 8.402344 7.996094 8.367188 8 8.332031 8 Z M 8.332031 8 "/>
<path style=" stroke:none;fill-rule:nonzero;fill:rgb(54.117647%,54.117647%,54.117647%);fill-opacity:1;" d="M 13.332031 8 C 13.300781 8 13.265625 7.996094 13.234375 7.988281 C 13.199219 7.984375 13.167969 7.972656 13.140625 7.960938 C 13.109375 7.949219 13.082031 7.933594 13.054688 7.914062 C 13.027344 7.898438 13 7.878906 12.976562 7.855469 C 12.953125 7.832031 12.933594 7.804688 12.914062 7.777344 C 12.894531 7.75 12.882812 7.722656 12.867188 7.691406 C 12.855469 7.660156 12.847656 7.628906 12.839844 7.597656 C 12.824219 7.53125 12.824219 7.464844 12.839844 7.398438 C 12.847656 7.367188 12.855469 7.335938 12.867188 7.304688 C 12.882812 7.273438 12.894531 7.246094 12.914062 7.21875 C 12.933594 7.191406 12.953125 7.164062 12.976562 7.140625 C 13 7.117188 13.027344 7.097656 13.054688 7.078125 C 13.082031 7.0625 13.109375 7.046875 13.140625 7.035156 C 13.167969 7.023438 13.199219 7.011719 13.234375 7.007812 C 13.296875 6.992188 13.363281 6.992188 13.429688 7.007812 C 13.460938 7.011719 13.492188 7.023438 13.519531 7.035156 C 13.550781 7.046875 13.582031 7.0625 13.609375 7.078125 C 13.664062 7.117188 13.710938 7.164062 13.746094 7.21875 C 13.765625 7.246094 13.78125 7.273438 13.792969 7.304688 C 13.804688 7.335938 13.8125 7.367188 13.820312 7.398438 C 13.832031 7.464844 13.832031 7.53125 13.820312 7.597656 C 13.8125 7.628906 13.804688 7.660156 13.792969 7.691406 C 13.78125 7.722656 13.765625 7.75 13.746094 7.777344 C 13.710938 7.832031 13.664062 7.878906 13.609375 7.914062 C 13.582031 7.933594 13.550781 7.949219 13.519531 7.960938 C 13.492188 7.972656 13.460938 7.984375 13.429688 7.988281 C 13.398438 7.996094 13.363281 8 13.332031 8 Z M 13.332031 8 "/>
<path style=" stroke:none;fill-rule:nonzero;fill:rgb(54.117647%,54.117647%,54.117647%);fill-opacity:1;" d="M 11.667969 8 C 11.535156 8 11.40625 7.949219 11.3125 7.855469 C 11.289062 7.832031 11.269531 7.804688 11.25 7.777344 C 11.234375 7.75 11.21875 7.722656 11.203125 7.691406 C 11.191406 7.660156 11.183594 7.628906 11.175781 7.597656 C 11.167969 7.566406 11.167969 7.53125 11.167969 7.496094 C 11.167969 7.332031 11.25 7.175781 11.390625 7.082031 C 11.527344 6.988281 11.703125 6.972656 11.859375 7.035156 C 11.886719 7.046875 11.917969 7.0625 11.945312 7.082031 C 11.972656 7.101562 11.996094 7.121094 12.019531 7.144531 C 12.042969 7.167969 12.0625 7.191406 12.082031 7.21875 C 12.101562 7.246094 12.117188 7.277344 12.128906 7.308594 C 12.140625 7.335938 12.148438 7.367188 12.15625 7.398438 C 12.171875 7.464844 12.171875 7.535156 12.15625 7.601562 C 12.148438 7.632812 12.140625 7.664062 12.128906 7.691406 C 12.117188 7.722656 12.101562 7.753906 12.082031 7.777344 C 12.046875 7.835938 12 7.882812 11.945312 7.917969 C 11.917969 7.9375 11.886719 7.953125 11.859375 7.964844 C 11.828125 7.976562 11.796875 7.984375 11.765625 7.992188 C 11.730469 8 11.699219 8 11.667969 8 Z M 11.667969 8 "/>
<path style=" stroke:none;fill-rule:nonzero;fill:rgb(54.117647%,54.117647%,54.117647%);fill-opacity:1;" d="M 10 8 C 9.964844 8 9.933594 7.996094 9.898438 7.988281 C 9.867188 7.984375 9.835938 7.972656 9.808594 7.960938 C 9.777344 7.949219 9.75 7.933594 9.722656 7.914062 C 9.691406 7.898438 9.667969 7.878906 9.644531 7.855469 C 9.550781 7.757812 9.5 7.632812 9.5 7.5 C 9.5 7.464844 9.503906 7.433594 9.511719 7.398438 C 9.515625 7.367188 9.527344 7.335938 9.539062 7.308594 C 9.550781 7.277344 9.566406 7.246094 9.585938 7.21875 C 9.601562 7.191406 9.625 7.167969 9.644531 7.144531 C 9.667969 7.121094 9.695312 7.101562 9.722656 7.082031 C 9.75 7.0625 9.777344 7.046875 9.808594 7.035156 C 9.929688 6.984375 10.070312 6.984375 10.191406 7.035156 C 10.222656 7.046875 10.25 7.0625 10.277344 7.082031 C 10.304688 7.101562 10.328125 7.121094 10.351562 7.144531 C 10.375 7.167969 10.398438 7.191406 10.414062 7.21875 C 10.433594 7.246094 10.449219 7.277344 10.460938 7.308594 C 10.472656 7.335938 10.484375 7.367188 10.488281 7.398438 C 10.496094 7.433594 10.5 7.464844 10.5 7.5 C 10.5 7.632812 10.445312 7.761719 10.351562 7.855469 C 10.328125 7.878906 10.304688 7.898438 10.277344 7.914062 C 10.25 7.933594 10.222656 7.949219 10.191406 7.960938 C 10.160156 7.972656 10.128906 7.984375 10.097656 7.988281 C 10.066406 7.996094 10.03125 8 10 8 Z M 10 8 "/>
<path style=" stroke:none;fill-rule:nonzero;fill:rgb(54.117647%,54.117647%,54.117647%);fill-opacity:1;" d="M 15 8 C 14.796875 8 14.613281 7.878906 14.539062 7.691406 C 14.460938 7.503906 14.503906 7.289062 14.644531 7.144531 C 14.667969 7.121094 14.695312 7.101562 14.722656 7.085938 C 14.75 7.066406 14.777344 7.050781 14.808594 7.039062 C 14.929688 6.988281 15.070312 6.988281 15.191406 7.039062 C 15.222656 7.050781 15.25 7.066406 15.277344 7.085938 C 15.402344 7.167969 15.484375 7.300781 15.5 7.449219 C 15.511719 7.601562 15.460938 7.75 15.355469 7.855469 C 15.257812 7.945312 15.132812 8 15 8 Z M 15 8 "/>
<path style=" stroke:none;fill-rule:nonzero;fill:rgb(54.117647%,54.117647%,54.117647%);fill-opacity:1;" d="M 5 10 C 4.964844 10 4.933594 9.996094 4.898438 9.988281 C 4.867188 9.984375 4.835938 9.972656 4.808594 9.960938 C 4.777344 9.949219 4.746094 9.933594 4.71875 9.914062 C 4.691406 9.898438 4.667969 9.878906 4.644531 9.855469 C 4.621094 9.832031 4.601562 9.804688 4.582031 9.777344 C 4.5625 9.75 4.546875 9.722656 4.535156 9.691406 C 4.523438 9.660156 4.515625 9.632812 4.511719 9.601562 C 4.496094 9.535156 4.496094 9.464844 4.511719 9.398438 C 4.515625 9.367188 4.527344 9.335938 4.539062 9.308594 C 4.550781 9.277344 4.566406 9.246094 4.585938 9.21875 C 4.621094 9.164062 4.667969 9.117188 4.722656 9.082031 C 4.75 9.0625 4.777344 9.046875 4.808594 9.035156 C 4.929688 8.984375 5.070312 8.984375 5.191406 9.035156 C 5.222656 9.046875 5.25 9.0625 5.277344 9.082031 C 5.332031 9.117188 5.378906 9.164062 5.414062 9.21875 C 5.433594 9.246094 5.449219 9.277344 5.460938 9.308594 C 5.472656 9.335938 5.484375 9.367188 5.488281 9.398438 C 5.503906 9.464844 5.503906 9.535156 5.488281 9.601562 C 5.484375 9.632812 5.472656 9.664062 5.460938 9.691406 C 5.449219 9.722656 5.433594 9.75 5.414062 9.777344 C 5.378906 9.835938 5.332031 9.882812 5.277344 9.917969 C 5.25 9.9375 5.222656 9.953125 5.191406 9.964844 C 5.160156 9.976562 5.128906 9.984375 5.097656 9.992188 C 5.066406 10 5.03125 10 5 10 Z M 5 10 "/>
<path style=" stroke:none;fill-rule:nonzero;fill:rgb(54.117647%,54.117647%,54.117647%);fill-opacity:1;" d="M 6.667969 10 C 6.632812 10 6.601562 9.996094 6.566406 9.988281 C 6.535156 9.984375 6.503906 9.972656 6.472656 9.960938 C 6.441406 9.949219 6.414062 9.933594 6.386719 9.914062 C 6.332031 9.878906 6.285156 9.832031 6.25 9.777344 C 6.230469 9.75 6.214844 9.722656 6.203125 9.691406 C 6.191406 9.660156 6.179688 9.628906 6.175781 9.597656 C 6.160156 9.53125 6.160156 9.464844 6.175781 9.398438 C 6.179688 9.367188 6.191406 9.335938 6.203125 9.304688 C 6.214844 9.273438 6.230469 9.246094 6.25 9.21875 C 6.265625 9.191406 6.289062 9.164062 6.3125 9.140625 C 6.335938 9.121094 6.359375 9.097656 6.386719 9.078125 C 6.414062 9.0625 6.441406 9.046875 6.472656 9.035156 C 6.503906 9.023438 6.535156 9.011719 6.566406 9.007812 C 6.632812 8.992188 6.699219 8.992188 6.765625 9.007812 C 6.796875 9.011719 6.828125 9.023438 6.859375 9.035156 C 6.890625 9.046875 6.917969 9.0625 6.945312 9.078125 C 6.972656 9.097656 7 9.117188 7.023438 9.140625 C 7.042969 9.164062 7.066406 9.191406 7.085938 9.21875 C 7.101562 9.246094 7.117188 9.273438 7.128906 9.304688 C 7.144531 9.335938 7.152344 9.367188 7.160156 9.398438 C 7.171875 9.464844 7.171875 9.53125 7.160156 9.597656 C 7.152344 9.628906 7.144531 9.660156 7.128906 9.691406 C 7.117188 9.722656 7.101562 9.75 7.085938 9.777344 C 7.066406 9.804688 7.046875 9.832031 7.023438 9.855469 C 7 9.878906 6.972656 9.898438 6.945312 9.914062 C 6.917969 9.933594 6.890625 9.949219 6.859375 9.960938 C 6.828125 9.972656 6.796875 9.984375 6.765625 9.988281 C 6.734375 9.996094 6.699219 10 6.667969 10 Z M 6.667969 10 "/>
<path style=" stroke:none;fill-rule:nonzero;fill:rgb(54.117647%,54.117647%,54.117647%);fill-opacity:1;" d="M 8.332031 10 C 8.300781 10 8.265625 9.996094 8.234375 9.988281 C 8.199219 9.984375 8.167969 9.972656 8.140625 9.960938 C 8.109375 9.949219 8.082031 9.933594 8.054688 9.914062 C 8.027344 9.898438 8 9.878906 7.976562 9.855469 C 7.882812 9.757812 7.832031 9.632812 7.832031 9.5 C 7.832031 9.464844 7.835938 9.433594 7.84375 9.398438 C 7.847656 9.367188 7.859375 9.335938 7.871094 9.308594 C 7.882812 9.277344 7.898438 9.246094 7.917969 9.21875 C 7.9375 9.191406 7.957031 9.167969 7.980469 9.144531 C 8.003906 9.121094 8.027344 9.101562 8.054688 9.082031 C 8.082031 9.0625 8.113281 9.046875 8.140625 9.035156 C 8.171875 9.023438 8.203125 9.015625 8.234375 9.007812 C 8.300781 8.996094 8.371094 8.996094 8.4375 9.007812 C 8.46875 9.015625 8.5 9.023438 8.53125 9.035156 C 8.558594 9.046875 8.589844 9.0625 8.617188 9.082031 C 8.671875 9.117188 8.71875 9.164062 8.753906 9.21875 C 8.773438 9.246094 8.785156 9.277344 8.800781 9.308594 C 8.8125 9.335938 8.820312 9.367188 8.828125 9.398438 C 8.835938 9.433594 8.839844 9.464844 8.839844 9.5 C 8.839844 9.667969 8.753906 9.824219 8.617188 9.914062 C 8.589844 9.933594 8.558594 9.949219 8.53125 9.960938 C 8.5 9.972656 8.46875 9.984375 8.4375 9.988281 C 8.402344 9.996094 8.367188 10 8.332031 10 Z M 8.332031 10 "/>
<path style=" stroke:none;fill-rule:nonzero;fill:rgb(54.117647%,54.117647%,54.117647%);fill-opacity:1;" d="M 13.332031 10 C 13.300781 10 13.265625 9.996094 13.234375 9.988281 C 13.199219 9.984375 13.167969 9.972656 13.140625 9.960938 C 13.109375 9.949219 13.082031 9.933594 13.054688 9.914062 C 13.027344 9.898438 13 9.878906 12.976562 9.855469 C 12.953125 9.832031 12.933594 9.804688 12.914062 9.777344 C 12.894531 9.75 12.882812 9.722656 12.867188 9.691406 C 12.855469 9.660156 12.847656 9.628906 12.839844 9.597656 C 12.832031 9.566406 12.828125 9.53125 12.828125 9.496094 C 12.828125 9.464844 12.832031 9.429688 12.839844 9.398438 C 12.847656 9.367188 12.855469 9.335938 12.867188 9.304688 C 12.882812 9.273438 12.894531 9.246094 12.914062 9.21875 C 12.933594 9.191406 12.953125 9.167969 12.976562 9.144531 C 13 9.117188 13.023438 9.097656 13.054688 9.078125 C 13.082031 9.0625 13.109375 9.046875 13.140625 9.035156 C 13.167969 9.023438 13.199219 9.011719 13.234375 9.007812 C 13.296875 8.992188 13.363281 8.992188 13.429688 9.007812 C 13.460938 9.011719 13.492188 9.023438 13.519531 9.035156 C 13.550781 9.046875 13.582031 9.0625 13.609375 9.078125 C 13.636719 9.097656 13.660156 9.121094 13.683594 9.144531 C 13.707031 9.164062 13.726562 9.191406 13.746094 9.21875 C 13.765625 9.246094 13.78125 9.273438 13.792969 9.304688 C 13.804688 9.335938 13.8125 9.367188 13.820312 9.398438 C 13.828125 9.429688 13.832031 9.464844 13.828125 9.496094 C 13.832031 9.53125 13.828125 9.566406 13.820312 9.597656 C 13.8125 9.628906 13.804688 9.660156 13.792969 9.691406 C 13.78125 9.722656 13.765625 9.75 13.746094 9.777344 C 13.710938 9.832031 13.664062 9.878906 13.609375 9.914062 C 13.582031 9.933594 13.550781 9.949219 13.519531 9.960938 C 13.492188 9.972656 13.460938 9.984375 13.429688 9.988281 C 13.398438 9.996094 13.363281 10 13.332031 10 Z M 13.332031 10 "/>
<path style=" stroke:none;fill-rule:nonzero;fill:rgb(54.117647%,54.117647%,54.117647%);fill-opacity:1;" d="M 11.667969 10 C 11.390625 10 11.167969 9.777344 11.167969 9.5 C 11.167969 9.464844 11.167969 9.433594 11.175781 9.398438 C 11.183594 9.367188 11.191406 9.335938 11.203125 9.308594 C 11.21875 9.277344 11.234375 9.246094 11.25 9.222656 C 11.382812 9.023438 11.636719 8.945312 11.859375 9.035156 C 11.886719 9.046875 11.917969 9.0625 11.945312 9.082031 C 12 9.117188 12.046875 9.164062 12.082031 9.222656 C 12.101562 9.246094 12.117188 9.277344 12.128906 9.308594 C 12.140625 9.335938 12.148438 9.367188 12.15625 9.398438 C 12.171875 9.464844 12.171875 9.535156 12.15625 9.601562 C 12.148438 9.632812 12.140625 9.664062 12.128906 9.691406 C 12.117188 9.722656 12.101562 9.753906 12.082031 9.78125 C 12.0625 9.808594 12.042969 9.832031 12.019531 9.855469 C 11.996094 9.878906 11.972656 9.898438 11.945312 9.917969 C 11.917969 9.9375 11.886719 9.953125 11.859375 9.964844 C 11.828125 9.976562 11.796875 9.984375 11.765625 9.992188 C 11.730469 10 11.699219 10 11.667969 10 Z M 11.667969 10 "/>
<path style=" stroke:none;fill-rule:nonzero;fill:rgb(54.117647%,54.117647%,54.117647%);fill-opacity:1;" d="M 10 10 C 9.964844 10 9.933594 9.996094 9.898438 9.988281 C 9.867188 9.984375 9.835938 9.972656 9.808594 9.960938 C 9.777344 9.949219 9.75 9.933594 9.722656 9.914062 C 9.691406 9.898438 9.667969 9.878906 9.644531 9.855469 C 9.621094 9.832031 9.601562 9.804688 9.582031 9.777344 C 9.5625 9.75 9.550781 9.722656 9.535156 9.691406 C 9.523438 9.660156 9.515625 9.632812 9.511719 9.601562 C 9.496094 9.535156 9.496094 9.464844 9.511719 9.398438 C 9.515625 9.367188 9.527344 9.335938 9.539062 9.308594 C 9.550781 9.277344 9.566406 9.246094 9.585938 9.21875 C 9.601562 9.191406 9.621094 9.167969 9.644531 9.144531 C 9.667969 9.121094 9.695312 9.101562 9.722656 9.082031 C 9.75 9.0625 9.777344 9.046875 9.808594 9.035156 C 9.929688 8.984375 10.070312 8.984375 10.191406 9.035156 C 10.222656 9.046875 10.25 9.0625 10.277344 9.082031 C 10.332031 9.117188 10.378906 9.164062 10.414062 9.21875 C 10.433594 9.246094 10.449219 9.277344 10.460938 9.308594 C 10.472656 9.335938 10.484375 9.367188 10.488281 9.398438 C 10.503906 9.464844 10.503906 9.535156 10.488281 9.601562 C 10.484375 9.632812 10.472656 9.664062 10.460938 9.691406 C 10.449219 9.722656 10.433594 9.753906 10.414062 9.78125 C 10.378906 9.835938 10.332031 9.882812 10.277344 9.917969 C 10.25 9.9375 10.222656 9.953125 10.191406 9.964844 C 10.160156 9.976562 10.128906 9.984375 10.097656 9.992188 C 10.066406 10 10.03125 10 10 10 Z M 10 10 "/>
<path style=" stroke:none;fill-rule:nonzero;fill:rgb(54.117647%,54.117647%,54.117647%);fill-opacity:1;" d="M 15 10 C 14.964844 10 14.933594 9.996094 14.898438 9.988281 C 14.867188 9.984375 14.835938 9.972656 14.808594 9.960938 C 14.777344 9.949219 14.746094 9.933594 14.71875 9.914062 C 14.691406 9.898438 14.667969 9.875 14.644531 9.855469 C 14.449219 9.660156 14.449219 9.34375 14.644531 9.148438 C 14.839844 8.953125 15.15625 8.953125 15.351562 9.148438 C 15.546875 9.34375 15.546875 9.660156 15.351562 9.855469 C 15.328125 9.875 15.304688 9.898438 15.277344 9.914062 C 15.25 9.933594 15.21875 9.949219 15.1875 9.960938 C 15.160156 9.972656 15.128906 9.984375 15.097656 9.988281 C 15.0625 9.996094 15.03125 10 15 10 Z M 15 10 "/>
<path style=" stroke:none;fill-rule:nonzero;fill:rgb(54.117647%,54.117647%,54.117647%);fill-opacity:1;" d="M 5 12 C 4.964844 12 4.933594 11.996094 4.898438 11.988281 C 4.867188 11.984375 4.835938 11.972656 4.808594 11.960938 C 4.777344 11.949219 4.746094 11.933594 4.71875 11.914062 C 4.664062 11.878906 4.617188 11.832031 4.582031 11.777344 C 4.5625 11.75 4.550781 11.722656 4.535156 11.691406 C 4.523438 11.660156 4.515625 11.628906 4.507812 11.597656 C 4.492188 11.53125 4.492188 11.464844 4.507812 11.398438 C 4.515625 11.367188 4.523438 11.335938 4.535156 11.304688 C 4.550781 11.273438 4.5625 11.246094 4.582031 11.21875 C 4.617188 11.164062 4.664062 11.117188 4.71875 11.078125 C 4.746094 11.0625 4.777344 11.046875 4.808594 11.035156 C 4.929688 10.984375 5.066406 10.984375 5.1875 11.035156 C 5.21875 11.046875 5.246094 11.0625 5.273438 11.078125 C 5.328125 11.117188 5.378906 11.164062 5.414062 11.21875 C 5.433594 11.246094 5.445312 11.273438 5.460938 11.304688 C 5.472656 11.335938 5.480469 11.367188 5.488281 11.398438 C 5.496094 11.429688 5.5 11.464844 5.496094 11.496094 C 5.496094 11.628906 5.445312 11.757812 5.351562 11.851562 C 5.328125 11.875 5.300781 11.894531 5.273438 11.914062 C 5.246094 11.933594 5.21875 11.945312 5.1875 11.960938 C 5.160156 11.972656 5.128906 11.980469 5.097656 11.988281 C 5.066406 11.996094 5.03125 12 5 12 Z M 5 12 "/>
<path style=" stroke:none;fill-rule:nonzero;fill:rgb(54.117647%,54.117647%,54.117647%);fill-opacity:1;" d="M 6.667969 12 C 6.632812 12 6.601562 11.996094 6.566406 11.988281 C 6.535156 11.984375 6.503906 11.972656 6.472656 11.960938 C 6.441406 11.949219 6.414062 11.933594 6.386719 11.914062 C 6.332031 11.878906 6.285156 11.832031 6.25 11.777344 C 6.230469 11.75 6.214844 11.722656 6.203125 11.691406 C 6.191406 11.660156 6.179688 11.628906 6.175781 11.597656 C 6.160156 11.53125 6.160156 11.464844 6.175781 11.398438 C 6.179688 11.367188 6.191406 11.335938 6.203125 11.304688 C 6.214844 11.273438 6.230469 11.246094 6.25 11.21875 C 6.285156 11.164062 6.332031 11.117188 6.386719 11.078125 C 6.414062 11.0625 6.441406 11.046875 6.472656 11.035156 C 6.503906 11.023438 6.535156 11.011719 6.566406 11.007812 C 6.632812 10.992188 6.699219 10.992188 6.765625 11.007812 C 6.796875 11.011719 6.828125 11.023438 6.859375 11.035156 C 6.890625 11.046875 6.917969 11.0625 6.945312 11.078125 C 6.972656 11.097656 7 11.117188 7.023438 11.140625 C 7.117188 11.238281 7.167969 11.367188 7.164062 11.5 C 7.167969 11.535156 7.164062 11.566406 7.15625 11.601562 C 7.148438 11.632812 7.140625 11.664062 7.128906 11.691406 C 7.117188 11.722656 7.101562 11.753906 7.082031 11.78125 C 7.0625 11.808594 7.042969 11.832031 7.019531 11.855469 C 6.996094 11.878906 6.972656 11.898438 6.945312 11.917969 C 6.917969 11.9375 6.886719 11.953125 6.859375 11.964844 C 6.828125 11.976562 6.796875 11.984375 6.765625 11.992188 C 6.734375 12 6.699219 12 6.667969 12 Z M 6.667969 12 "/>
<path style=" stroke:none;fill-rule:nonzero;fill:rgb(54.117647%,54.117647%,54.117647%);fill-opacity:1;" d="M 8.332031 12 C 8.300781 12 8.265625 11.996094 8.234375 11.988281 C 8.199219 11.984375 8.167969 11.972656 8.140625 11.960938 C 8.109375 11.949219 8.082031 11.933594 8.054688 11.914062 C 8.027344 11.898438 8 11.878906 7.976562 11.855469 C 7.953125 11.832031 7.933594 11.804688 7.914062 11.777344 C 7.898438 11.75 7.882812 11.722656 7.867188 11.691406 C 7.855469 11.660156 7.847656 11.628906 7.839844 11.597656 C 7.832031 11.566406 7.828125 11.53125 7.828125 11.496094 C 7.828125 11.464844 7.832031 11.429688 7.839844 11.398438 C 7.847656 11.367188 7.855469 11.335938 7.867188 11.304688 C 7.878906 11.273438 7.894531 11.246094 7.914062 11.21875 C 7.933594 11.191406 7.953125 11.164062 7.976562 11.140625 C 8 11.117188 8.027344 11.097656 8.054688 11.078125 C 8.082031 11.0625 8.109375 11.046875 8.140625 11.035156 C 8.167969 11.023438 8.199219 11.011719 8.234375 11.007812 C 8.300781 10.992188 8.367188 10.992188 8.433594 11.007812 C 8.464844 11.011719 8.496094 11.023438 8.527344 11.035156 C 8.558594 11.046875 8.585938 11.0625 8.613281 11.078125 C 8.640625 11.097656 8.664062 11.117188 8.6875 11.140625 C 8.710938 11.164062 8.734375 11.191406 8.75 11.21875 C 8.769531 11.246094 8.785156 11.273438 8.796875 11.304688 C 8.808594 11.335938 8.820312 11.367188 8.824219 11.398438 C 8.832031 11.429688 8.835938 11.464844 8.835938 11.496094 C 8.835938 11.53125 8.832031 11.566406 8.824219 11.597656 C 8.820312 11.628906 8.808594 11.660156 8.796875 11.691406 C 8.785156 11.722656 8.769531 11.75 8.75 11.777344 C 8.714844 11.832031 8.667969 11.878906 8.613281 11.914062 C 8.585938 11.933594 8.558594 11.949219 8.527344 11.960938 C 8.496094 11.972656 8.464844 11.984375 8.433594 11.988281 C 8.398438 11.996094 8.367188 12 8.332031 12 Z M 8.332031 12 "/>
<path style=" stroke:none;fill-rule:nonzero;fill:rgb(54.117647%,54.117647%,54.117647%);fill-opacity:1;" d="M 13.332031 12 C 13.300781 12 13.265625 11.996094 13.234375 11.988281 C 13.199219 11.984375 13.167969 11.972656 13.140625 11.960938 C 13.109375 11.949219 13.082031 11.933594 13.054688 11.914062 C 13.027344 11.898438 13 11.878906 12.976562 11.855469 C 12.882812 11.761719 12.832031 11.632812 12.832031 11.5 C 12.832031 11.367188 12.882812 11.238281 12.976562 11.144531 C 13 11.121094 13.027344 11.101562 13.054688 11.085938 C 13.082031 11.066406 13.109375 11.050781 13.140625 11.039062 C 13.167969 11.027344 13.199219 11.015625 13.234375 11.011719 C 13.296875 10.996094 13.363281 10.996094 13.429688 11.011719 C 13.460938 11.015625 13.492188 11.027344 13.519531 11.039062 C 13.550781 11.050781 13.582031 11.066406 13.609375 11.085938 C 13.636719 11.101562 13.660156 11.125 13.683594 11.144531 C 13.789062 11.25 13.84375 11.398438 13.828125 11.550781 C 13.8125 11.699219 13.734375 11.832031 13.609375 11.914062 C 13.582031 11.933594 13.550781 11.949219 13.519531 11.960938 C 13.492188 11.972656 13.460938 11.984375 13.429688 11.988281 C 13.398438 11.996094 13.363281 12 13.332031 12 Z M 13.332031 12 "/>
<path style=" stroke:none;fill-rule:nonzero;fill:rgb(54.117647%,54.117647%,54.117647%);fill-opacity:1;" d="M 11.667969 12 C 11.390625 12 11.167969 11.777344 11.167969 11.5 C 11.167969 11.464844 11.171875 11.433594 11.175781 11.398438 C 11.183594 11.367188 11.191406 11.335938 11.203125 11.308594 C 11.21875 11.277344 11.234375 11.246094 11.25 11.21875 C 11.363281 11.050781 11.566406 10.96875 11.765625 11.007812 C 11.796875 11.015625 11.828125 11.023438 11.859375 11.035156 C 11.886719 11.046875 11.917969 11.0625 11.945312 11.082031 C 11.972656 11.101562 11.996094 11.121094 12.019531 11.144531 C 12.113281 11.238281 12.167969 11.367188 12.167969 11.496094 C 12.167969 11.53125 12.164062 11.566406 12.15625 11.597656 C 12.148438 11.628906 12.140625 11.660156 12.128906 11.691406 C 12.117188 11.722656 12.101562 11.75 12.082031 11.777344 C 12.0625 11.804688 12.042969 11.832031 12.019531 11.855469 C 11.996094 11.878906 11.972656 11.898438 11.945312 11.914062 C 11.917969 11.933594 11.886719 11.949219 11.859375 11.960938 C 11.828125 11.972656 11.796875 11.984375 11.765625 11.988281 C 11.730469 11.996094 11.699219 12 11.667969 12 Z M 11.667969 12 "/>
<path style=" stroke:none;fill-rule:nonzero;fill:rgb(54.117647%,54.117647%,54.117647%);fill-opacity:1;" d="M 10 12 C 9.964844 12 9.933594 11.996094 9.898438 11.988281 C 9.867188 11.984375 9.835938 11.972656 9.808594 11.960938 C 9.777344 11.949219 9.75 11.933594 9.722656 11.914062 C 9.691406 11.898438 9.667969 11.878906 9.644531 11.855469 C 9.621094 11.832031 9.601562 11.804688 9.582031 11.777344 C 9.5625 11.75 9.550781 11.722656 9.535156 11.691406 C 9.523438 11.660156 9.515625 11.628906 9.507812 11.597656 C 9.492188 11.53125 9.492188 11.464844 9.507812 11.398438 C 9.515625 11.367188 9.523438 11.335938 9.535156 11.304688 C 9.550781 11.273438 9.5625 11.246094 9.582031 11.21875 C 9.601562 11.191406 9.621094 11.164062 9.644531 11.140625 C 9.667969 11.117188 9.691406 11.097656 9.722656 11.078125 C 9.75 11.0625 9.777344 11.046875 9.808594 11.035156 C 9.929688 10.984375 10.066406 10.984375 10.1875 11.035156 C 10.21875 11.046875 10.246094 11.0625 10.273438 11.078125 C 10.328125 11.117188 10.378906 11.164062 10.414062 11.21875 C 10.433594 11.246094 10.445312 11.273438 10.460938 11.304688 C 10.472656 11.335938 10.480469 11.367188 10.488281 11.398438 C 10.5 11.464844 10.5 11.53125 10.488281 11.597656 C 10.480469 11.628906 10.472656 11.660156 10.460938 11.691406 C 10.445312 11.722656 10.433594 11.75 10.414062 11.777344 C 10.378906 11.832031 10.328125 11.878906 10.273438 11.914062 C 10.246094 11.933594 10.21875 11.949219 10.1875 11.960938 C 10.160156 11.972656 10.128906 11.984375 10.097656 11.988281 C 10.0625 11.996094 10.03125 12 10 12 Z M 10 12 "/>
<path style=" stroke:none;fill-rule:nonzero;fill:rgb(54.117647%,54.117647%,54.117647%);fill-opacity:1;" d="M 15 12 C 14.964844 12 14.933594 11.996094 14.898438 11.988281 C 14.867188 11.984375 14.835938 11.972656 14.808594 11.960938 C 14.777344 11.949219 14.746094 11.933594 14.71875 11.914062 C 14.691406 11.898438 14.667969 11.878906 14.644531 11.855469 C 14.621094 11.832031 14.601562 11.804688 14.582031 11.777344 C 14.5625 11.75 14.546875 11.722656 14.535156 11.691406 C 14.523438 11.660156 14.515625 11.628906 14.507812 11.597656 C 14.492188 11.53125 14.492188 11.464844 14.507812 11.398438 C 14.515625 11.367188 14.523438 11.335938 14.535156 11.304688 C 14.550781 11.273438 14.5625 11.246094 14.582031 11.21875 C 14.601562 11.191406 14.621094 11.164062 14.644531 11.140625 C 14.738281 11.046875 14.863281 10.996094 14.996094 10.996094 C 15.128906 10.996094 15.257812 11.046875 15.351562 11.140625 C 15.375 11.164062 15.394531 11.191406 15.414062 11.21875 C 15.433594 11.246094 15.445312 11.273438 15.460938 11.304688 C 15.472656 11.335938 15.480469 11.367188 15.488281 11.398438 C 15.5 11.464844 15.5 11.53125 15.488281 11.597656 C 15.480469 11.628906 15.472656 11.660156 15.460938 11.691406 C 15.445312 11.722656 15.433594 11.75 15.414062 11.777344 C 15.394531 11.804688 15.375 11.832031 15.351562 11.855469 C 15.328125 11.878906 15.304688 11.898438 15.277344 11.914062 C 15.25 11.933594 15.21875 11.949219 15.1875 11.960938 C 15.160156 11.972656 15.128906 11.984375 15.097656 11.988281 C 15.0625 11.996094 15.03125 12 15 12 Z M 15 12 "/>
<path style=" stroke:none;fill-rule:nonzero;fill:rgb(54.117647%,54.117647%,54.117647%);fill-opacity:1;" d="M 5 14 C 4.964844 14 4.933594 13.996094 4.898438 13.988281 C 4.867188 13.984375 4.835938 13.972656 4.808594 13.960938 C 4.777344 13.949219 4.746094 13.933594 4.71875 13.914062 C 4.691406 13.898438 4.667969 13.875 4.644531 13.851562 C 4.621094 13.832031 4.601562 13.804688 4.582031 13.777344 C 4.5625 13.75 4.550781 13.722656 4.535156 13.691406 C 4.523438 13.660156 4.515625 13.628906 4.507812 13.597656 C 4.492188 13.53125 4.492188 13.464844 4.507812 13.398438 C 4.515625 13.367188 4.523438 13.335938 4.535156 13.304688 C 4.550781 13.273438 4.5625 13.246094 4.582031 13.21875 C 4.601562 13.191406 4.621094 13.164062 4.644531 13.144531 C 4.667969 13.121094 4.691406 13.097656 4.71875 13.078125 C 4.746094 13.0625 4.777344 13.046875 4.808594 13.035156 C 4.929688 12.984375 5.066406 12.984375 5.1875 13.035156 C 5.21875 13.046875 5.246094 13.0625 5.273438 13.078125 C 5.300781 13.097656 5.328125 13.121094 5.351562 13.144531 C 5.375 13.164062 5.394531 13.191406 5.414062 13.21875 C 5.433594 13.246094 5.445312 13.273438 5.460938 13.304688 C 5.472656 13.335938 5.480469 13.367188 5.488281 13.398438 C 5.5 13.464844 5.5 13.53125 5.488281 13.597656 C 5.480469 13.628906 5.472656 13.660156 5.460938 13.691406 C 5.445312 13.722656 5.433594 13.75 5.414062 13.777344 C 5.394531 13.804688 5.375 13.832031 5.351562 13.851562 C 5.328125 13.875 5.300781 13.898438 5.273438 13.914062 C 5.246094 13.933594 5.21875 13.949219 5.1875 13.960938 C 5.160156 13.972656 5.128906 13.984375 5.097656 13.988281 C 5.0625 13.996094 5.03125 14 5 14 Z M 5 14 "/>
<path style=" stroke:none;fill-rule:nonzero;fill:rgb(54.117647%,54.117647%,54.117647%);fill-opacity:1;" d="M 6.667969 14 C 6.632812 14 6.601562 13.996094 6.566406 13.988281 C 6.535156 13.984375 6.503906 13.972656 6.472656 13.960938 C 6.441406 13.949219 6.414062 13.933594 6.386719 13.914062 C 6.359375 13.898438 6.335938 13.875 6.3125 13.855469 C 6.21875 13.757812 6.167969 13.632812 6.167969 13.5 C 6.167969 13.464844 6.167969 13.433594 6.175781 13.398438 C 6.183594 13.367188 6.191406 13.335938 6.203125 13.308594 C 6.21875 13.277344 6.234375 13.246094 6.25 13.222656 C 6.269531 13.195312 6.289062 13.167969 6.3125 13.144531 C 6.335938 13.121094 6.363281 13.101562 6.390625 13.082031 C 6.417969 13.0625 6.445312 13.046875 6.476562 13.035156 C 6.503906 13.023438 6.535156 13.015625 6.570312 13.007812 C 6.636719 12.996094 6.703125 12.996094 6.769531 13.007812 C 6.800781 13.015625 6.832031 13.023438 6.863281 13.035156 C 6.890625 13.046875 6.921875 13.0625 6.949219 13.082031 C 7.003906 13.117188 7.050781 13.164062 7.085938 13.222656 C 7.105469 13.246094 7.121094 13.277344 7.132812 13.308594 C 7.144531 13.335938 7.15625 13.367188 7.160156 13.398438 C 7.167969 13.433594 7.171875 13.464844 7.171875 13.5 C 7.171875 13.535156 7.167969 13.566406 7.160156 13.601562 C 7.15625 13.632812 7.144531 13.664062 7.132812 13.691406 C 7.121094 13.722656 7.105469 13.753906 7.085938 13.777344 C 7.050781 13.835938 7.003906 13.882812 6.949219 13.917969 C 6.921875 13.9375 6.890625 13.953125 6.863281 13.964844 C 6.832031 13.976562 6.800781 13.984375 6.769531 13.992188 C 6.734375 14 6.703125 14 6.667969 14 Z M 6.667969 14 "/>
<path style=" stroke:none;fill-rule:nonzero;fill:rgb(54.117647%,54.117647%,54.117647%);fill-opacity:1;" d="M 8.332031 14 C 8.300781 14 8.265625 13.996094 8.234375 13.988281 C 8.199219 13.984375 8.167969 13.972656 8.140625 13.960938 C 8.109375 13.949219 8.082031 13.933594 8.054688 13.914062 C 8.027344 13.898438 8 13.878906 7.976562 13.855469 C 7.953125 13.832031 7.933594 13.804688 7.914062 13.777344 C 7.898438 13.75 7.882812 13.722656 7.867188 13.691406 C 7.855469 13.660156 7.847656 13.628906 7.839844 13.597656 C 7.832031 13.566406 7.828125 13.53125 7.828125 13.496094 C 7.828125 13.363281 7.882812 13.238281 7.976562 13.144531 C 8 13.121094 8.027344 13.101562 8.054688 13.082031 C 8.082031 13.0625 8.109375 13.046875 8.140625 13.035156 C 8.167969 13.023438 8.199219 13.015625 8.234375 13.007812 C 8.300781 12.996094 8.367188 12.996094 8.433594 13.007812 C 8.464844 13.015625 8.496094 13.023438 8.527344 13.035156 C 8.558594 13.046875 8.585938 13.0625 8.613281 13.082031 C 8.75 13.175781 8.835938 13.332031 8.832031 13.5 C 8.832031 13.535156 8.828125 13.566406 8.824219 13.601562 C 8.816406 13.632812 8.808594 13.664062 8.796875 13.691406 C 8.78125 13.722656 8.765625 13.753906 8.75 13.78125 C 8.710938 13.835938 8.664062 13.882812 8.609375 13.917969 C 8.582031 13.9375 8.554688 13.953125 8.523438 13.964844 C 8.496094 13.976562 8.464844 13.984375 8.429688 13.992188 C 8.398438 14 8.367188 14 8.332031 14 Z M 8.332031 14 "/>
<path style=" stroke:none;fill-rule:nonzero;fill:rgb(54.117647%,54.117647%,54.117647%);fill-opacity:1;" d="M 13.332031 14 C 13.300781 14 13.265625 13.996094 13.234375 13.988281 C 13.199219 13.984375 13.167969 13.972656 13.140625 13.960938 C 13.109375 13.949219 13.082031 13.933594 13.054688 13.914062 C 13.027344 13.898438 13 13.878906 12.976562 13.855469 C 12.882812 13.761719 12.832031 13.632812 12.832031 13.5 C 12.832031 13.367188 12.882812 13.238281 12.976562 13.144531 C 13 13.121094 13.027344 13.101562 13.054688 13.085938 C 13.082031 13.066406 13.109375 13.050781 13.140625 13.039062 C 13.167969 13.027344 13.199219 13.015625 13.234375 13.011719 C 13.296875 12.996094 13.363281 12.996094 13.429688 13.011719 C 13.460938 13.015625 13.492188 13.027344 13.519531 13.039062 C 13.550781 13.050781 13.582031 13.066406 13.609375 13.085938 C 13.636719 13.101562 13.660156 13.125 13.683594 13.144531 C 13.789062 13.25 13.84375 13.398438 13.828125 13.550781 C 13.8125 13.699219 13.734375 13.832031 13.609375 13.914062 C 13.582031 13.933594 13.550781 13.949219 13.519531 13.960938 C 13.492188 13.972656 13.460938 13.984375 13.429688 13.988281 C 13.398438 13.996094 13.363281 14 13.332031 14 Z M 13.332031 14 "/>
<path style=" stroke:none;fill-rule:nonzero;fill:rgb(54.117647%,54.117647%,54.117647%);fill-opacity:1;" d="M 11.667969 14 C 11.535156 14 11.40625 13.949219 11.3125 13.855469 C 11.289062 13.832031 11.269531 13.804688 11.25 13.777344 C 11.234375 13.75 11.21875 13.722656 11.203125 13.691406 C 11.191406 13.660156 11.183594 13.628906 11.175781 13.597656 C 11.167969 13.566406 11.167969 13.53125 11.167969 13.496094 C 11.167969 13.464844 11.167969 13.429688 11.175781 13.398438 C 11.183594 13.367188 11.191406 13.335938 11.203125 13.304688 C 11.21875 13.273438 11.234375 13.246094 11.25 13.21875 C 11.363281 13.050781 11.566406 12.964844 11.765625 13.007812 C 11.796875 13.011719 11.828125 13.023438 11.859375 13.035156 C 11.886719 13.046875 11.917969 13.0625 11.945312 13.078125 C 11.972656 13.097656 11.996094 13.117188 12.019531 13.140625 C 12.042969 13.164062 12.0625 13.191406 12.082031 13.21875 C 12.101562 13.246094 12.117188 13.273438 12.128906 13.304688 C 12.140625 13.335938 12.148438 13.367188 12.15625 13.398438 C 12.171875 13.464844 12.171875 13.53125 12.15625 13.597656 C 12.148438 13.628906 12.140625 13.660156 12.128906 13.691406 C 12.117188 13.722656 12.101562 13.75 12.082031 13.777344 C 12.046875 13.832031 12 13.878906 11.945312 13.914062 C 11.917969 13.933594 11.886719 13.949219 11.859375 13.960938 C 11.828125 13.972656 11.796875 13.984375 11.765625 13.988281 C 11.730469 13.996094 11.699219 14 11.667969 14 Z M 11.667969 14 "/>
<path style=" stroke:none;fill-rule:nonzero;fill:rgb(54.117647%,54.117647%,54.117647%);fill-opacity:1;" d="M 10 14 C 9.964844 14 9.933594 13.996094 9.898438 13.988281 C 9.867188 13.984375 9.835938 13.972656 9.808594 13.960938 C 9.777344 13.949219 9.75 13.933594 9.722656 13.914062 C 9.691406 13.898438 9.667969 13.878906 9.644531 13.855469 C 9.621094 13.832031 9.601562 13.804688 9.582031 13.777344 C 9.5625 13.75 9.550781 13.722656 9.535156 13.691406 C 9.523438 13.660156 9.515625 13.628906 9.507812 13.597656 C 9.492188 13.53125 9.492188 13.464844 9.507812 13.398438 C 9.515625 13.367188 9.523438 13.335938 9.535156 13.304688 C 9.550781 13.273438 9.5625 13.246094 9.582031 13.21875 C 9.601562 13.191406 9.621094 13.164062 9.644531 13.140625 C 9.667969 13.117188 9.691406 13.097656 9.722656 13.078125 C 9.75 13.0625 9.777344 13.046875 9.808594 13.035156 C 9.929688 12.984375 10.066406 12.984375 10.1875 13.035156 C 10.21875 13.046875 10.246094 13.0625 10.273438 13.078125 C 10.328125 13.117188 10.378906 13.164062 10.414062 13.21875 C 10.433594 13.246094 10.445312 13.273438 10.460938 13.304688 C 10.472656 13.335938 10.480469 13.367188 10.488281 13.398438 C 10.5 13.464844 10.5 13.53125 10.488281 13.597656 C 10.480469 13.628906 10.472656 13.660156 10.460938 13.691406 C 10.445312 13.722656 10.433594 13.75 10.414062 13.777344 C 10.378906 13.832031 10.328125 13.878906 10.273438 13.914062 C 10.246094 13.933594 10.21875 13.949219 10.1875 13.960938 C 10.160156 13.972656 10.128906 13.984375 10.097656 13.988281 C 10.0625 13.996094 10.03125 14 10 14 Z M 10 14 "/>
<path style=" stroke:none;fill-rule:nonzero;fill:rgb(54.117647%,54.117647%,54.117647%);fill-opacity:1;" d="M 15 14 C 14.796875 14 14.613281 13.878906 14.539062 13.691406 C 14.460938 13.503906 14.503906 13.289062 14.644531 13.144531 C 14.667969 13.121094 14.695312 13.101562 14.722656 13.085938 C 14.75 13.066406 14.777344 13.050781 14.808594 13.039062 C 14.929688 12.988281 15.070312 12.988281 15.191406 13.039062 C 15.222656 13.050781 15.25 13.066406 15.277344 13.085938 C 15.402344 13.167969 15.484375 13.300781 15.5 13.449219 C 15.511719 13.601562 15.460938 13.75 15.355469 13.855469 C 15.257812 13.945312 15.132812 14 15 14 Z M 15 14 "/>
</g>
</svg>
