<svg width="535" height="161" viewBox="0 0 535 161" fill="none" xmlns="http://www.w3.org/2000/svg">
<path d="M42.5238 143.337C41.7567 143.193 40.9673 143.22 40.2118 143.415C39.4562 143.611 38.753 143.971 38.1523 144.469C37.5516 144.967 37.0681 145.592 36.7363 146.298C36.4044 147.005 36.2324 147.775 36.2324 148.556C36.2324 149.336 36.4044 150.107 36.7363 150.814C37.0681 151.52 37.5516 152.145 38.1523 152.643C38.753 153.141 39.4562 153.501 40.2118 153.697C40.9673 153.892 41.7567 153.919 42.5238 153.775C43.2909 153.919 44.0805 153.893 44.8363 153.697C45.5921 153.502 46.2955 153.142 46.8964 152.644C47.4974 152.145 47.981 151.521 48.313 150.814C48.645 150.108 48.8171 149.337 48.8171 148.556C48.8171 147.775 48.645 147.004 48.313 146.298C47.981 145.591 47.4974 144.966 46.8964 144.468C46.2955 143.97 45.5921 143.61 44.8363 143.415C44.0805 143.219 43.2909 143.193 42.5238 143.337ZM42.5238 151.766C40.1613 151.766 38.2411 150.325 38.2411 148.556C38.2411 146.787 40.1613 145.342 42.5238 145.342C44.8862 145.342 46.8095 146.784 46.8095 148.556C46.8095 150.328 44.8862 151.766 42.5238 151.766Z" fill="white"/>
<path d="M33.966 152.49C33.7422 151.241 33.0355 150.132 31.9992 149.401C30.9628 148.67 29.6802 148.377 28.4294 148.585C27.1624 148.633 25.9653 149.178 25.0973 150.102C24.2293 151.026 23.7604 152.255 23.7923 153.522C23.9084 154.123 24.1449 154.693 24.4875 155.199C24.8302 155.706 25.2718 156.137 25.7858 156.468C26.2999 156.799 26.8756 157.022 27.4783 157.125C28.081 157.227 28.6982 157.206 29.2926 157.063C32.2396 156.766 34.2052 154.84 33.966 152.49ZM29.1078 155.255C27.5541 155.412 25.8155 154.876 25.658 153.335C25.7393 152.58 26.0772 151.877 26.6151 151.342C27.153 150.807 27.8583 150.473 28.6129 150.396C29.3676 150.319 30.1258 150.504 30.7606 150.919C31.3954 151.334 31.8684 151.955 32.1003 152.677C32.2577 154.225 30.6586 155.097 29.1078 155.255Z" fill="white"/>
<path d="M15.6536 152.498C12.8914 152.498 11.1771 153.798 11.1771 155.888C11.1771 157.977 12.8914 159.277 15.6536 159.277C18.4159 159.277 20.1271 157.98 20.1271 155.888C20.1271 153.795 18.4128 152.498 15.6536 152.498ZM15.6506 157.478C14.4118 157.478 12.9307 157.205 12.9307 155.888C12.9307 154.576 14.4118 154.301 15.6506 154.301C16.8954 154.301 18.3765 154.576 18.3765 155.888C18.3765 157.205 16.8954 157.478 15.6506 157.478Z" fill="white"/>
<path d="M3.88074 154.308C0.945852 154.308 0.630859 156.176 0.630859 156.985C0.630859 157.794 0.945852 159.663 3.88074 159.663C6.0978 159.663 7.53344 158.612 7.53344 156.985C7.53344 155.359 6.0978 154.308 3.88074 154.308ZM3.88074 158.054C2.23914 158.054 2.23914 157.333 2.23914 156.985C2.23914 156.637 2.23914 155.916 3.88074 155.916C4.08669 155.916 5.92213 155.946 5.92213 156.985C5.92213 158.024 4.08669 158.054 3.88074 158.054Z" fill="white"/>
<path d="M81.061 114.594C80.7557 112.633 79.994 110.771 78.8371 109.159C77.6802 107.546 76.1606 106.228 74.4007 105.311C74.3432 105.272 74.2947 105.235 74.2402 105.196L74.216 105.178L74.004 105.041V108.046C74.1009 108.107 74.2493 108.21 74.4007 108.319C75.4787 109.013 76.4036 109.92 77.1186 110.985C77.8337 112.049 78.3239 113.249 78.5592 114.509C78.5502 116.066 78.1679 117.598 77.4443 118.976C76.7207 120.354 75.6769 121.538 74.4007 122.43C74.3644 122.466 74.3311 122.499 74.2917 122.533L74.004 122.787L73.8041 122.96L74.004 123.038L74.4007 123.196L74.4038 123.199C74.4492 123.217 78.8046 125.056 76.7299 131.498C75.6203 134.57 73.5491 137.202 70.824 139.004C68.099 140.805 64.8656 141.679 61.6042 141.496H61.5012C55.3847 141.329 49.422 139.541 44.222 136.317L43.9525 136.168L43.7374 136.389C41.0198 139.166 37.3958 140.876 33.5244 141.208C33.4547 141.223 28.6965 141.571 25.6011 135.326L25.4436 135.011L25.1135 135.126C25.0741 135.138 21.5001 136.323 19.5981 134.533C19.4702 134.412 19.3527 134.282 19.2467 134.142H18.7197V134.136H16.8873V134.142H16.4763L16.5036 134.242L16.5551 134.375C16.5732 134.424 16.5914 134.469 16.6187 134.533C17.0185 135.49 18.7206 138.537 24.1694 137.849C25.1312 139.503 26.4893 140.892 28.1215 141.891C29.7536 142.89 31.6086 143.467 33.5192 143.57H33.5223C37.54 143.501 41.3867 141.932 44.3077 139.173C49.4289 141.878 55.0559 143.491 60.8327 143.91C61.4702 143.91 62.1073 143.874 62.7409 143.804C66.1301 143.719 69.4261 142.676 72.2475 140.797C75.069 138.917 77.3007 136.277 78.6843 133.182C79.4976 131.504 79.8135 129.629 79.5945 127.778C79.3755 125.927 78.6308 124.177 77.4486 122.736C78.5824 121.703 79.4892 120.446 80.1112 119.045C80.7333 117.643 81.0561 116.128 81.061 114.594Z" fill="white"/>
<path d="M73.7672 108.124L73.4553 107.951C69.285 104.145 63.9645 101.837 58.3356 101.394C57.5232 101.394 56.7123 101.465 55.9126 101.609C54.2121 101.941 52.594 102.605 51.1515 103.565C49.709 104.524 48.4706 105.76 47.5078 107.2L46.6052 108.727L46.3387 106.973C45.639 102.406 43.3432 102.103 43.2978 102.097C43.1323 102.063 42.9638 102.047 42.795 102.048C40.2963 102.048 36.9858 105.368 36.9495 105.404L36.1711 106.192L35.8894 105.125C34.1297 98.5833 29.7016 98.4471 29.535 98.444C26.4448 98.4408 23.4671 99.6035 21.1968 101.7C20.3506 102.774 19.9404 104.128 20.0482 105.491C20.156 106.854 20.7738 108.126 21.7783 109.054L22.4053 109.711L21.5693 110.075C13.1615 113.724 13.643 116.811 13.6521 116.862C13.9429 119.079 18.8344 121.329 21.851 122.223L22.7112 122.483L22.1812 123.207C17.3533 129.783 18.798 133.036 19.1433 133.617L19.2493 133.902H63.6087C66.3077 133.893 68.8931 132.815 70.7976 130.902C72.7021 128.99 73.7701 126.4 73.7672 123.701V108.124Z" fill="white"/>
<path d="M63.6103 75.3102H10.1585C7.46333 75.3144 4.87993 76.3878 2.97536 78.2948C1.0708 80.2018 0.000718867 82.7866 0 85.4818L0 123.732C0.000797891 126.428 1.07084 129.012 2.97532 130.92C4.87981 132.827 7.46316 133.901 10.1585 133.906H16.1191L16.0767 133.806C15.719 132.13 15.7067 130.399 16.0405 128.719C16.3743 127.038 17.0472 125.444 18.0182 124.032C13.2994 122.078 10.8491 119.743 10.734 117.096C10.5583 113.007 15.9738 109.676 17.9546 108.597C17.4337 107.605 17.1254 106.515 17.0493 105.397C16.9731 104.279 17.1309 103.157 17.5124 102.104C18.6391 99.7303 20.6488 97.8912 23.1126 96.979C24.8959 96.1073 26.8465 95.6311 28.8309 95.5827C30.0255 95.5764 31.2098 95.8038 32.317 96.2521C34.5896 97.2478 36.4392 99.0116 37.5417 101.234C39.095 100.093 40.9452 99.4253 42.8693 99.3112C43.4407 99.3107 44.0087 99.3986 44.5533 99.5716C45.995 100.09 47.1838 101.14 47.8758 102.507C50.6385 100.012 54.2395 98.6492 57.9617 98.6903C63.6777 99.0865 69.1546 101.139 73.7234 104.596L73.7688 104.63V85.4818C73.7672 82.7869 72.6969 80.2028 70.7925 78.2961C68.8881 76.3894 66.3052 75.315 63.6103 75.3102Z" fill="white"/>
<path d="M166.172 56.767L149.361 65.1709L150.435 67.3195L167.246 58.9156L166.172 56.767Z" fill="white"/>
<path d="M158.607 44.8316L143.519 58.2385L145.116 60.0348L160.203 46.6279L158.607 44.8316Z" fill="white"/>
<path d="M144.072 35.0902L136.106 53.527L138.313 54.4805L146.279 36.0437L144.072 35.0902Z" fill="white"/>
<path d="M129.312 31.3526H126.908V51.9756H129.312V31.3526Z" fill="white"/>
<path d="M112.152 35.0899L109.941 36.0439L117.749 54.1136L117.912 54.4801L120.117 53.526L112.309 35.4533L112.152 35.0899Z" fill="white"/>
<path d="M96.0206 46.6293L111.107 60.0347L112.706 58.2386L97.6137 44.8302L96.0206 46.6293Z" fill="white"/>
<path d="M90.044 56.7752L88.9722 58.925L105.792 67.3111L106.864 65.1614L90.044 56.7752Z" fill="white"/>
<path d="M154.836 75.3125H151.183L151.168 75.7063C151.15 78.7236 150.533 81.7073 149.355 84.485C148.176 87.2627 146.459 89.7792 144.302 91.889C142.522 93.7017 140.357 95.0917 137.969 95.9567L136.263 107.769H119.639L118.182 96.0506C105.676 91.256 105.2 78.1172 105.061 75.5276L105.049 75.3125H101.384C98.685 75.3222 96.0998 76.4018 94.1955 78.3146C92.2912 80.2274 91.2232 82.8174 91.2256 85.5165V123.876C91.2277 126.319 92.1087 128.679 93.7075 130.526C95.3062 132.373 97.5161 133.583 99.9333 133.934H156.29C158.707 133.582 160.916 132.372 162.514 130.525C164.113 128.679 164.993 126.318 164.994 123.876V85.5165C164.997 82.8172 163.929 80.227 162.025 78.3141C160.121 76.4011 157.535 75.3217 154.836 75.3125ZM119.829 110.558H136.357V112.997H119.829V110.558ZM119.829 115.229H136.357V117.664H119.829V115.229ZM131.224 127.002H124.715V124.563H131.224V127.002ZM136.403 122.334H119.875V119.896H136.403V122.334Z" fill="white"/>
<path d="M119.582 87.303L129.056 83.4262L120.918 80.9426L126.636 75.7028L127.017 75.3121H108.163V75.7028C108.294 78.0501 108.669 89.6715 120.336 94.039L120.56 94.1208L121.938 105H126.863V92.1454L129.474 90.001L119.582 87.303Z" fill="white"/>
<path d="M130.484 75.3107L130.151 75.7044L125.92 79.7508L136.817 82.8069L127.074 86.8109L134.724 88.9553L129.403 93.2955V105.002H133.891L135.445 94.0467L135.651 93.9588C139.286 92.4642 142.406 89.9405 144.627 86.6977C146.848 83.4549 148.074 79.6341 148.154 75.7044V75.3107H130.484Z" fill="white"/>
<path d="M245.902 75.3118H225.566C234.528 81.9993 239.593 88.9473 240.625 95.968C240.961 98.9877 240.671 102.044 239.772 104.946C238.873 107.849 237.385 110.534 235.401 112.835L235.228 113.059C227.432 123 211.522 130.511 205.04 133.276C204.307 133.501 203.57 133.72 202.829 133.934H245.902C248.594 133.925 251.173 132.849 253.073 130.941C254.973 129.033 256.039 126.45 256.036 123.757V85.4885C256.039 82.7959 254.973 80.2123 253.073 78.3044C251.173 76.3965 248.594 75.3203 245.902 75.3118Z" fill="white"/>
<path d="M220.992 75.6711L220.523 75.3107H192.585C189.893 75.3199 187.313 76.3968 185.414 78.3052C183.514 80.2135 182.448 82.7975 182.451 85.4904V123.753C182.448 126.446 183.513 129.031 185.413 130.94C187.313 132.849 189.892 133.926 192.585 133.936H192.734L193.891 133.551C219.887 124.952 236.56 111.919 237.399 99.5378C238.256 87.0744 222.761 76.8008 220.992 75.6711Z" fill="white"/>
<path d="M243.015 27.6285C243.292 26.0249 243.433 24.4007 243.436 22.7733C243.532 19.1182 242.676 15.5008 240.953 12.2757C239.23 9.05067 236.699 6.32868 233.607 4.37657C229.233 1.59254 224.172 0.0783679 218.987 0.00296078C213.803 -0.0724464 208.699 1.29387 204.246 3.94951C201.014 6.06361 198.392 8.98793 196.642 12.431C194.892 15.8741 194.075 19.7157 194.273 23.5729C194.282 25.4681 194.438 27.3596 194.739 29.2307C196.151 38.3698 201.072 46.5976 208.456 52.1646C204.579 51.1136 199.515 50.6108 197.323 54.1666C197.054 54.5053 196.859 54.8957 196.749 55.3134C196.639 55.7311 196.616 56.167 196.683 56.5938C196.749 57.0206 196.903 57.4292 197.134 57.7938C197.366 58.1584 197.67 58.4713 198.028 58.7128C200.848 60.736 207.702 60.1999 211.842 57.8314L209.001 64.4493H228.071L224.257 56.8198C228.87 58.7491 234.219 60.4907 237.108 58.7279C237.695 58.3621 238.178 57.8514 238.51 57.2451C238.842 56.6388 239.012 55.9573 239.005 55.266C239.091 54.5304 238.98 53.7849 238.683 53.1066C238.385 52.4282 237.912 51.8416 237.311 51.4074C235.129 50.2734 232.601 50.001 230.227 50.6441C230.563 50.3685 230.884 50.0929 231.205 49.8112C237.578 43.9972 241.75 36.1619 243.015 27.6285ZM199.434 56.7592C199.158 56.5624 198.819 56.317 199.37 55.4266C201.021 52.737 206.542 53.7698 211.031 55.5538C209.303 56.5895 207.369 57.2341 205.366 57.4424C203.362 57.6507 201.337 57.4175 199.434 56.7592ZM235.927 53.37C236.195 53.5705 236.401 53.8426 236.521 54.155C236.641 54.4675 236.671 54.8075 236.606 55.1358C236.623 55.4353 236.564 55.7343 236.433 56.0042C236.302 56.2741 236.104 56.5059 235.858 56.6775C234.767 57.3438 231.978 57.474 224.915 54.4937C229.222 53.0581 234.11 52.0889 235.927 53.37ZM221.886 53.0248C221.598 53.1399 221.38 53.2247 221.277 53.2671L220.438 53.5578L220.035 53.7547L220.05 53.7789L218.66 54.3544L220.814 55.3175L224.182 62.0475H212.651L215.971 54.3029L214.762 53.5851C210.123 51.09 206.118 47.5621 203.059 43.2737C199.999 38.9852 197.966 34.0511 197.117 28.8521C196.836 27.1174 196.691 25.3635 196.683 23.6063C196.493 20.1481 197.212 16.7005 198.767 13.6062C200.323 10.512 202.662 7.8792 205.552 5.96971C209.609 3.55694 214.256 2.3179 218.976 2.39063C223.696 2.46336 228.303 3.84499 232.284 6.38162C235.039 8.12784 237.294 10.5596 238.827 13.4387C240.36 16.3179 241.12 19.5459 241.031 22.8067C241.026 24.2889 240.896 25.7681 240.643 27.2287C239.909 32.7493 237.809 37.9996 234.534 42.5039C231.258 47.0083 226.911 50.6244 221.886 53.0248Z" fill="white"/>
<path d="M224.547 74.8385L224.383 74.7234C224.38 74.7204 224.353 74.7083 224.307 74.678C222.502 73.5532 220.952 72.0614 219.76 70.2994C218.568 68.5374 217.759 66.5444 217.387 64.4498H214.796C215.209 68.4073 217.105 72.0617 220.103 74.678C220.166 74.7325 220.236 74.784 220.305 74.8385C220.405 74.9172 220.502 74.999 220.602 75.0747H224.47L224.885 75.0717L224.547 74.8385Z" fill="white"/>
<path d="M339.348 77.6123H349.534V134H339.348V77.6123ZM344.357 67.7598C343.133 67.7598 341.982 67.6113 340.906 67.3145C339.867 67.0176 338.977 66.6094 338.234 66.0898C337.492 65.5703 336.898 64.958 336.453 64.2529C336.045 63.5479 335.841 62.7686 335.841 61.915C335.841 61.0244 336.063 60.208 336.509 59.4658C336.954 58.6865 337.548 58.0186 338.29 57.4619C339.069 56.8682 339.979 56.4229 341.018 56.126C342.057 55.792 343.17 55.625 344.357 55.625C345.545 55.625 346.64 55.792 347.642 56.126C348.681 56.4229 349.571 56.8682 350.313 57.4619C351.093 58.0186 351.705 58.6865 352.15 59.4658C352.596 60.208 352.818 61.0244 352.818 61.915C352.818 62.7686 352.596 63.5479 352.15 64.2529C351.742 64.958 351.167 65.5703 350.425 66.0898C349.683 66.6094 348.792 67.0176 347.753 67.3145C346.714 67.6113 345.582 67.7598 344.357 67.7598ZM339.348 77.6123H349.534V134H339.348V77.6123ZM411.711 96.4268H401.97C401.376 92.9385 400.021 90.0439 397.906 87.7432C395.791 85.4053 392.396 84.2363 387.72 84.2363C381.337 84.2363 376.772 87.2051 374.026 93.1426C372.245 96.9648 371.354 101.696 371.354 107.337C371.354 113.015 372.616 117.802 375.14 121.698C377.663 125.558 381.634 127.487 387.052 127.487C391.208 127.487 394.492 126.281 396.904 123.869C399.354 121.457 401.042 118.154 401.97 113.961H411.711C410.598 121.457 407.814 126.949 403.361 130.438C398.908 133.889 393.212 135.614 386.272 135.614C378.479 135.614 372.264 132.924 367.625 127.543C362.986 122.125 360.667 115.353 360.667 107.226C360.667 97.2803 363.209 89.543 368.293 84.0137C373.377 78.4844 379.853 75.7197 387.72 75.7197C394.437 75.7197 399.892 77.2783 404.085 80.3955C408.315 83.4756 410.857 88.8193 411.711 96.4268ZM463.2 105.333C463.2 100.843 462.514 96.9648 461.141 93.6992C458.543 87.4648 453.793 84.3477 446.891 84.3477C439.951 84.3477 435.201 87.6504 432.641 94.2559C431.268 97.7812 430.581 102.253 430.581 107.671C430.581 112.05 431.268 115.761 432.641 118.804C435.238 124.667 439.988 127.599 446.891 127.599C451.566 127.599 455.444 125.743 458.524 122.032C461.642 118.321 463.2 112.755 463.2 105.333ZM420.951 77.6123H430.692V85.127C432.696 82.5664 434.886 80.5811 437.261 79.1709C440.638 77.0557 444.608 75.998 449.173 75.998C455.927 75.998 461.66 78.4658 466.373 83.4014C471.086 88.2998 473.442 95.3135 473.442 104.442C473.442 116.763 470.047 125.576 463.256 130.883C458.951 134.223 453.941 135.893 448.227 135.893C443.736 135.893 439.97 134.965 436.927 133.109C435.146 132.033 433.16 130.215 430.971 127.654V156.6H420.951V77.6123ZM532.168 96.4268H522.427C521.833 92.9385 520.479 90.0439 518.363 87.7432C516.248 85.4053 512.853 84.2363 508.177 84.2363C501.794 84.2363 497.229 87.2051 494.483 93.1426C492.702 96.9648 491.812 101.696 491.812 107.337C491.812 113.015 493.073 117.802 495.597 121.698C498.12 125.558 502.091 127.487 507.509 127.487C511.665 127.487 514.949 126.281 517.361 123.869C519.811 121.457 521.499 118.154 522.427 113.961H532.168C531.055 121.457 528.271 126.949 523.818 130.438C519.365 133.889 513.669 135.614 506.729 135.614C498.937 135.614 492.721 132.924 488.082 127.543C483.443 122.125 481.124 115.353 481.124 107.226C481.124 97.2803 483.666 89.543 488.75 84.0137C493.834 78.4844 500.31 75.7197 508.177 75.7197C514.894 75.7197 520.349 77.2783 524.542 80.3955C528.772 83.4756 531.314 88.8193 532.168 96.4268Z" fill="white"/>
</svg>
