<svg width="771" height="246" viewBox="0 0 771 246" fill="none" xmlns="http://www.w3.org/2000/svg">
<path d="M460.362 112.212H476.761V207.737H460.362V112.212ZM468.427 95.4553C466.455 95.4553 464.604 95.2163 462.871 94.7384C461.198 94.2605 459.765 93.5734 458.57 92.6773C457.375 91.7812 456.419 90.7358 455.702 89.541C455.045 88.3462 454.717 87.0319 454.717 85.5982C454.717 84.1047 455.075 82.7008 455.792 81.3865C456.509 80.0722 457.465 78.9371 458.659 77.9813C459.914 77.0255 461.378 76.2787 463.05 75.7411C464.723 75.2034 466.515 74.9346 468.427 74.9346C470.339 74.9346 472.101 75.2034 473.714 75.7411C475.387 76.2787 476.82 77.0255 478.015 77.9813C479.27 78.9371 480.255 80.0722 480.972 81.3865C481.689 82.7008 482.048 84.1047 482.048 85.5982C482.048 87.0319 481.689 88.3462 480.972 89.541C480.315 90.7358 479.389 91.7812 478.194 92.6773C477 93.5734 475.566 94.2605 473.893 94.7384C472.22 95.2163 470.398 95.4553 468.427 95.4553ZM460.362 112.212H476.761V207.737H460.362V112.212Z" fill="white"/>
<path d="M576.855 144.024H561.173C560.217 138.11 558.037 133.211 554.632 129.328C551.227 125.385 545.76 123.414 538.233 123.414C527.958 123.414 520.61 128.432 516.189 138.468C513.322 144.98 511.888 153.015 511.888 162.573C511.888 172.191 513.919 180.286 517.981 186.857C522.044 193.429 528.436 196.715 537.158 196.715C543.849 196.715 549.136 194.683 553.019 190.621C556.962 186.499 559.68 180.883 561.173 173.774H576.855C575.063 186.499 570.582 195.818 563.413 201.733C556.245 207.587 547.075 210.514 535.903 210.514C523.358 210.514 513.351 205.944 505.884 196.804C498.416 187.604 494.683 176.134 494.683 162.394C494.683 145.547 498.775 132.434 506.959 123.055C515.144 113.676 525.568 108.986 538.233 108.986C549.046 108.986 557.828 111.615 564.578 116.872C571.389 122.129 575.481 131.18 576.855 144.024Z" fill="white"/>
<path d="M659.744 159.168C659.744 151.521 658.639 144.95 656.429 139.454C652.247 128.88 644.6 123.593 633.488 123.593C622.317 123.593 614.67 129.178 610.548 140.35C608.338 146.324 607.233 153.911 607.233 163.111C607.233 170.519 608.338 176.821 610.548 182.018C614.73 191.935 622.377 196.894 633.488 196.894C641.016 196.894 647.259 193.757 652.217 187.485C657.235 181.152 659.744 171.713 659.744 159.168ZM591.73 112.212H607.412V124.937C610.638 120.576 614.163 117.201 617.986 114.811C623.422 111.227 629.814 109.434 637.162 109.434C648.035 109.434 657.265 113.616 664.852 121.98C672.439 130.284 676.232 142.172 676.232 157.645C676.232 178.554 670.766 193.489 659.834 202.45C652.904 208.125 644.839 210.962 635.639 210.962C628.411 210.962 622.347 209.379 617.448 206.213C614.581 204.421 611.385 201.344 607.86 196.983V246H591.73V112.212Z" fill="white"/>
<path d="M770.771 144.024H755.089C754.133 138.11 751.953 133.211 748.548 129.328C745.143 125.385 739.676 123.414 732.149 123.414C721.874 123.414 714.526 128.432 710.105 138.468C707.237 144.98 705.804 153.015 705.804 162.573C705.804 172.191 707.835 180.286 711.897 186.857C715.96 193.429 722.352 196.715 731.074 196.715C737.765 196.715 743.052 194.683 746.935 190.621C750.878 186.499 753.596 180.883 755.089 173.774H770.771C768.979 186.499 764.498 195.818 757.329 201.733C750.161 207.587 740.991 210.514 729.819 210.514C717.274 210.514 707.267 205.944 699.8 196.804C692.332 187.604 688.599 176.134 688.599 162.394C688.599 145.547 692.691 132.434 700.875 123.055C709.06 113.676 719.484 108.986 732.149 108.986C742.962 108.986 751.744 111.615 758.494 116.872C765.305 122.129 769.397 131.18 770.771 144.024Z" fill="white"/>
<path d="M23.519 234.295C22.9913 234.295 22.4961 234.369 22.0459 234.515C21.6276 234.65 21.269 234.834 20.9836 235.062C20.7192 235.269 20.5199 235.504 20.3704 235.782C20.248 236.007 20.1914 236.232 20.1914 236.489C20.1914 236.706 20.2351 236.884 20.3298 237.05C20.4645 237.287 20.649 237.493 20.8963 237.68C21.1626 237.882 21.5071 238.042 21.9223 238.16C22.8812 238.431 24.1532 238.433 25.0887 238.163C25.4965 238.045 25.8385 237.883 26.1061 237.68C26.3539 237.493 26.5397 237.287 26.6725 237.052C26.7679 236.885 26.8128 236.705 26.8128 236.489C26.8128 236.233 26.7556 236.007 26.6338 235.782C26.4843 235.505 26.285 235.271 26.0243 235.065C25.7321 234.833 25.3766 234.648 24.9614 234.51C24.5296 234.368 24.0431 234.295 23.519 234.295ZM23.519 242.365C22.5724 242.365 21.6689 242.244 20.833 242.008C19.9343 241.754 19.1427 241.369 18.4803 240.865C17.8037 240.352 17.2556 239.734 16.854 239.026C16.4154 238.257 16.1928 237.402 16.1928 236.489C16.1928 235.569 16.4142 234.692 16.8509 233.884C17.2599 233.125 17.8172 232.465 18.5067 231.922C19.1599 231.404 19.9374 230.995 20.812 230.711C22.517 230.159 24.5376 230.162 26.2162 230.714C27.0797 230.999 27.848 231.407 28.5036 231.926C29.1889 232.468 29.7461 233.128 30.1539 233.885C30.5906 234.695 30.8114 235.571 30.8114 236.489C30.8114 237.399 30.5888 238.251 30.1508 239.025C29.7498 239.731 29.203 240.35 28.5239 240.865C27.8615 241.368 27.0791 241.751 26.1971 242.005C25.3704 242.244 24.4687 242.365 23.519 242.365Z" fill="white"/>
<path d="M45.6334 229.213C44.9581 229.213 44.3227 229.308 43.7433 229.495C43.1934 229.674 42.721 229.918 42.3415 230.22C41.9805 230.503 41.7074 230.826 41.5019 231.206C41.326 231.534 41.2399 231.876 41.2399 232.246C41.2399 232.578 41.3094 232.857 41.4601 233.121C41.6471 233.448 41.9042 233.736 42.2462 233.995C42.6023 234.265 43.0606 234.481 43.6074 234.635C44.8332 234.984 46.4374 234.985 47.6263 234.64L47.63 234.639C48.1651 234.484 48.6197 234.268 48.9789 233.995C49.3209 233.734 49.5786 233.448 49.7649 233.121C49.9144 232.857 49.9851 232.578 49.9851 232.246C49.9851 231.874 49.899 231.533 49.7219 231.205C49.5183 230.826 49.2452 230.505 48.8866 230.222C48.501 229.917 48.0323 229.672 47.4891 229.491C46.93 229.306 46.3051 229.213 45.6334 229.213ZM45.6334 238.897C44.5324 238.897 43.4837 238.758 42.5168 238.482C41.4884 238.192 40.5824 237.754 39.8271 237.179C39.057 236.594 38.4364 235.892 37.9824 235.094C37.491 234.228 37.2413 233.27 37.2413 232.246C37.2413 231.214 37.4897 230.227 37.9806 229.313C38.4456 228.449 39.0791 227.699 39.8633 227.082C40.6119 226.488 41.5025 226.021 42.5076 225.693C44.4728 225.056 46.8162 225.058 48.7458 225.696C49.7367 226.024 50.6168 226.491 51.366 227.084C52.149 227.702 52.7813 228.452 53.2439 229.311C53.7341 230.224 53.9832 231.211 53.9832 232.246C53.9832 233.268 53.7341 234.225 53.2432 235.093C52.7893 235.891 52.1693 236.593 51.398 237.179C50.6439 237.751 49.749 238.188 48.7384 238.48C47.7831 238.757 46.7387 238.897 45.6334 238.897Z" fill="white"/>
<path d="M70.2376 223.969C69.3864 223.969 68.5818 224.09 67.848 224.328C67.1407 224.558 66.5318 224.874 66.0378 225.264C65.5636 225.639 65.2013 226.067 64.9289 226.572C64.6847 227.026 64.5666 227.496 64.5666 228.01C64.5666 228.473 64.6693 228.881 64.8815 229.254C65.1337 229.697 65.4763 230.081 65.9321 230.427C66.3995 230.782 66.9943 231.063 67.6986 231.262C69.2344 231.699 71.2482 231.699 72.7404 231.266L72.7429 231.265C73.433 231.066 74.0235 230.784 74.4971 230.424C74.9504 230.079 75.2942 229.696 75.5433 229.256C75.7561 228.881 75.8601 228.473 75.8601 228.01C75.8601 227.496 75.7414 227.026 75.4972 226.572C75.2259 226.068 74.8624 225.639 74.387 225.263C73.8924 224.872 73.2878 224.555 72.5909 224.324C71.8793 224.088 71.0858 223.969 70.2376 223.969ZM70.2376 235.59C68.9496 235.59 67.7287 235.428 66.6068 235.109C65.4228 234.774 64.3808 234.269 63.5142 233.612C62.6278 232.939 61.9186 232.137 61.4038 231.228C60.8502 230.254 60.5679 229.169 60.5679 228.01C60.5679 226.835 60.8502 225.713 61.4075 224.678C61.9365 223.695 62.661 222.836 63.5591 222.126C64.4239 221.443 65.4504 220.905 66.6105 220.526C68.8863 219.786 71.6105 219.789 73.8494 220.528C74.9916 220.908 76.0065 221.446 76.8676 222.126C77.7675 222.839 78.4908 223.697 79.0185 224.678C79.5758 225.713 79.8587 226.835 79.8587 228.01C79.8587 229.165 79.5777 230.247 79.0229 231.228C78.508 232.136 77.7988 232.936 76.915 233.609C76.0446 234.268 75.015 234.772 73.8506 235.107C72.7441 235.428 71.5281 235.59 70.2376 235.59Z" fill="white"/>
<path d="M83.8544 158.996C83.2523 159.595 82.337 159.749 81.5731 159.378C80.8085 159.009 80.3614 158.195 80.4579 157.352C80.7224 155.04 80.1239 153.464 78.6293 152.532C75.8657 150.816 70.2322 151.483 66.3264 153.993C64.9234 154.896 62.6175 156.774 62.9355 159.226C63.0769 160.321 62.3044 161.324 61.2095 161.466C60.1147 161.604 59.1115 160.837 58.9694 159.741C57.9871 152.148 53.9042 149.764 50.6516 149.101C45.282 148.004 38.8753 150.894 36.0674 155.677C33.684 159.734 34.4516 164.391 38.2282 168.785C38.6864 169.319 38.831 170.055 38.6083 170.722C38.3863 171.39 37.829 171.891 37.142 172.042C23.0166 175.151 18.5862 181.799 19.1502 186.984C19.8163 193.112 27.7171 199.627 41.0465 199.627C41.5804 199.627 42.0921 199.84 42.468 200.22C42.8432 200.599 43.0511 201.113 43.0455 201.647C43.016 204.316 43.8943 206.409 45.1061 208.029H105.008C113.698 208.029 120.808 200.92 120.808 192.23V156.673C111.304 148.903 95.7803 147.127 83.8544 158.996Z" fill="white"/>
<path d="M15.1747 187.415C14.4698 180.935 18.9605 172.882 33.3172 168.873C30.1064 163.832 29.8229 158.413 32.6191 153.651C36.3003 147.385 44.4022 143.743 51.4504 145.183C55.8815 146.086 59.265 148.879 61.2296 153.108C62.0206 152.21 63.0029 151.375 64.1636 150.629C68.6887 147.72 76.0353 146.208 80.7419 149.137C82.3823 150.16 83.5122 151.63 84.083 153.437C96.1712 143.777 110.693 145.021 120.808 151.716V128.087C120.808 119.397 113.698 112.287 105.008 112.287H15.7996C7.10974 112.287 0 119.397 0 128.087V192.229C0 200.919 7.10974 208.029 15.7996 208.029H40.4515C39.7909 206.642 39.3339 205.163 39.15 203.586C24.4883 202.962 16.0155 195.144 15.1747 187.415Z" fill="white"/>
<path d="M128.159 182.543C135.728 172.981 132.299 162.079 125.215 155.239C123.873 153.943 122.393 152.764 120.808 151.716L120.808 156.673C121.373 157.134 121.918 157.614 122.438 158.116C128.043 163.529 131.804 172.848 123.959 181.301C123.59 181.698 123.398 182.229 123.428 182.77C123.457 183.311 123.706 183.818 124.115 184.173C130.038 189.299 130.377 199.198 124.903 207.199C117.704 217.721 100.744 224.06 74.7262 210.293C74.4321 210.139 74.1111 210.062 73.7912 210.062C73.3631 210.062 72.9363 210.2 72.5814 210.469C66.7621 214.891 57.0659 215.558 50.0287 212.02C48.5778 211.29 46.5902 210.015 45.1061 208.029L40.4515 208.029C41.9333 211.142 44.5545 213.742 48.2327 215.591C56.1341 219.566 66.9312 219.007 73.9475 214.397C84.7569 219.945 94.1523 222.208 102.076 222.208C114.486 222.207 123.28 216.653 128.203 209.457C134.376 200.435 134.246 189.249 128.159 182.543Z" fill="white"/>
<path d="M195.964 141.837C196.61 142.114 197.091 142.727 197.178 143.426L199.324 160.931H206.887V140.339C206.887 139.723 207.174 139.142 207.663 138.768L211.209 136.051L200.685 132.926C199.891 132.69 199.327 131.983 199.274 131.157C199.221 130.329 199.688 129.555 200.447 129.22L210.46 124.779L201.68 122.208C201.025 122.015 200.514 121.5 200.33 120.84C200.147 120.183 200.314 119.476 200.776 118.972L206.887 112.288H175.698C176.197 125.193 184.026 136.7 195.964 141.837Z" fill="white"/>
<path d="M216.758 122.499C217.554 122.733 218.121 123.439 218.176 124.268C218.232 125.096 217.763 125.872 217.003 126.208L206.962 130.661L216.06 133.363C216.773 133.575 217.309 134.17 217.444 134.901C217.578 135.633 217.292 136.379 216.701 136.832L210.846 141.316V160.931H219.119L221.245 143.479C221.33 142.779 221.784 142.134 222.433 141.858C234.4 136.728 242.246 125.214 242.746 112.287H212.252L205.839 119.301L216.758 122.499Z" fill="white"/>
<path d="M221.128 173.363H197.315C196.222 173.363 195.336 172.477 195.336 171.384C195.336 170.29 196.222 169.405 197.315 169.405H221.128C222.222 169.405 223.108 170.29 223.108 171.384C223.108 172.477 222.222 173.363 221.128 173.363ZM221.128 181.017H197.315C196.222 181.017 195.336 180.131 195.336 179.037C195.336 177.944 196.222 177.058 197.315 177.058H221.128C222.222 177.058 223.108 177.944 223.108 179.037C223.108 180.131 222.222 181.017 221.128 181.017ZM221.128 188.67H197.315C196.222 188.67 195.336 187.785 195.336 186.691C195.336 185.598 196.222 184.712 197.315 184.712H221.128C222.222 184.712 223.108 185.598 223.108 186.691C223.108 187.785 222.222 188.67 221.128 188.67ZM213.476 196.324H204.968C203.875 196.324 202.988 195.438 202.988 194.344C202.988 193.251 203.875 192.365 204.968 192.365H213.476C214.57 192.365 215.456 193.251 215.456 194.344C215.456 195.438 214.57 196.324 213.476 196.324ZM253.975 112.287H246.706C246.218 126.418 237.877 139.059 225.045 145.025L222.837 163.151C222.715 164.144 221.873 164.891 220.871 164.891H197.572C196.572 164.891 195.729 164.145 195.607 163.152L193.384 145.015C180.539 139.012 172.226 126.386 171.739 112.287H164.767C156.077 112.287 148.967 119.397 148.967 128.087V192.23C148.967 200.92 156.077 208.029 164.767 208.029H253.975C262.665 208.029 269.775 200.92 269.775 192.23V128.087C269.775 119.397 262.665 112.287 253.975 112.287Z" fill="white"/>
<path d="M173.027 97.5049C172.765 97.5049 172.499 97.4538 172.241 97.3474L150.813 88.4712C150.021 88.1433 149.542 87.3776 149.543 86.57C149.543 86.3085 149.593 86.0416 149.7 85.7845C150.135 84.7339 151.337 84.2382 152.387 84.6712L173.815 93.5475C174.607 93.8753 175.086 94.6411 175.085 95.4487C175.085 95.7101 175.034 95.977 174.928 96.2341C174.6 97.0264 173.834 97.5049 173.027 97.5049Z" fill="white"/>
<path d="M181.52 84.7963C180.994 84.7963 180.467 84.5958 180.066 84.1941L163.913 68.042C163.511 67.6404 163.31 67.1151 163.31 66.588C163.31 66.0615 163.511 65.5362 163.913 65.1339C164.715 64.3306 166.019 64.3306 166.821 65.1339L182.974 81.286C183.375 81.6883 183.576 82.2136 183.576 82.7401C183.576 83.2672 183.375 83.7925 182.974 84.1941C182.573 84.5958 182.045 84.7963 181.52 84.7963Z" fill="white"/>
<path d="M194.227 76.308C193.42 76.308 192.655 75.8294 192.327 75.0372L183.652 54.093C183.545 53.8359 183.495 53.569 183.495 53.3076C183.494 52.4994 183.973 51.7342 184.765 51.4064C185.812 50.9703 187.016 51.4685 187.452 52.5196L196.127 73.4638C196.233 73.7209 196.284 73.9879 196.284 74.2493C196.284 75.0569 195.806 75.8221 195.013 76.1505C194.756 76.2569 194.489 76.308 194.227 76.308Z" fill="white"/>
<path d="M209.216 73.3245C208.08 73.3245 207.16 72.4044 207.16 71.2683V48.6216C207.16 47.4855 208.08 46.5654 209.216 46.5654C210.352 46.5654 211.273 47.4855 211.273 48.6216V71.2683C211.273 72.4044 210.352 73.3245 209.216 73.3245Z" fill="white"/>
<path d="M224.204 76.308C223.943 76.308 223.676 76.2569 223.419 76.1505C222.626 75.8221 222.148 75.0569 222.148 74.2493C222.148 73.9879 222.199 73.7209 222.305 73.4638L231.034 52.3905C231.469 51.3424 232.671 50.8411 233.721 51.2772C234.513 51.605 234.991 52.3702 234.991 53.1784C234.991 53.4398 234.94 53.7068 234.834 53.9632L226.105 75.0372C225.777 75.8294 225.012 76.308 224.204 76.308Z" fill="white"/>
<path d="M236.913 84.7963C236.386 84.7963 235.86 84.5958 235.459 84.1941C235.057 83.7925 234.856 83.2672 234.856 82.7401C234.856 82.2136 235.057 81.6883 235.459 81.286L251.796 64.9482C252.6 64.1443 253.901 64.1443 254.705 64.9482C255.107 65.3498 255.307 65.8751 255.307 66.4022C255.307 66.9287 255.107 67.4547 254.705 67.8563L238.367 84.1941C237.965 84.5958 237.439 84.7963 236.913 84.7963Z" fill="white"/>
<path d="M245.405 97.5065C244.597 97.5065 243.832 97.0279 243.504 96.2357C243.398 95.9786 243.347 95.7117 243.347 95.4502C243.347 94.6426 243.825 93.8769 244.618 93.549L266.367 84.5393C267.421 84.1038 268.619 84.6033 269.054 85.6526C269.16 85.9097 269.211 86.1754 269.211 86.4381C269.211 87.2457 268.732 88.0114 267.94 88.3393L246.191 97.349C245.934 97.4554 245.667 97.5065 245.405 97.5065Z" fill="white"/>
<path d="M402.94 112.299H366.138C368.208 114.175 370.48 115.865 372.705 117.273C372.711 117.275 372.837 117.356 372.843 117.361C388.72 127.624 396.153 139.036 394.936 151.282C393.51 165.643 380.359 180.564 355.846 195.631C347.596 200.703 339.384 204.934 332.888 208.041H402.94C411.63 208.041 418.739 200.931 418.739 192.242V128.099C418.739 119.409 411.63 112.299 402.94 112.299Z" fill="white"/>
<path d="M390.958 150.884C392.013 140.252 385.188 130.102 370.674 120.718C368.619 119.419 364.248 116.411 360.513 112.299H313.732C305.042 112.299 297.932 119.409 297.932 128.099V192.241C297.932 200.931 305.042 208.041 313.732 208.041H323.29C339.183 201.05 388.33 177.369 390.958 150.884Z" fill="white"/>
<path d="M360.789 84.179C360.771 84.1851 360.759 84.2005 360.741 84.2073C360.52 84.2903 360.322 84.4096 360.147 84.5597C360.126 84.5782 360.103 84.5936 360.083 84.6126C359.895 84.7873 359.742 84.9921 359.632 85.2271L359.629 85.2314C359.627 85.2351 359.628 85.2394 359.626 85.2437C359.567 85.3735 359.51 85.5045 359.48 85.6472C359.457 85.7542 359.461 85.8612 359.456 85.9683C359.455 85.9904 359.451 86.0113 359.451 86.0341C359.447 86.2961 359.488 86.5507 359.583 86.7912L359.584 86.7962L363.307 96.3152H348.944L352.667 86.7962C352.671 86.7845 352.669 86.7716 352.673 86.7605C352.756 86.5391 352.794 86.3053 352.794 86.0661C352.794 86.0156 352.787 85.9683 352.783 85.9178C352.777 85.8262 352.782 85.7345 352.762 85.6429C352.736 85.5229 352.685 85.4135 352.638 85.3027C352.629 85.2794 352.632 85.2535 352.622 85.2314C352.617 85.2215 352.608 85.216 352.604 85.2062C352.497 84.9841 352.352 84.7898 352.175 84.6218C352.147 84.5954 352.117 84.5751 352.087 84.5499C351.916 84.4053 351.724 84.2891 351.51 84.2079C351.492 84.2011 351.48 84.1851 351.461 84.179C334.827 78.4015 321.078 58.7502 320.16 39.4434C319.704 29.8161 322.719 21.3132 328.879 14.8524C335.557 7.85092 345.221 3.99435 356.159 3.99435C367.03 3.99435 376.694 7.85092 383.372 14.8524C389.532 21.3132 392.547 29.8161 392.091 39.4434C391.174 58.7502 377.424 78.4015 360.789 84.179ZM378.287 88.8733C378.676 89.6219 378.296 90.1484 377.909 90.4608C376.582 91.5317 372.42 92.0625 365.799 87.0631C373.418 85.5808 377.414 87.188 378.287 88.8733ZM334.336 90.4707C333.949 90.1613 333.57 89.6329 333.956 88.885C334.588 87.6653 336.856 86.4837 340.948 86.4837C342.51 86.4837 344.338 86.6553 346.444 87.0631C339.828 92.0625 335.667 91.544 334.336 90.4707ZM396.086 39.6384C396.598 28.8917 393.203 19.3683 386.269 12.0981C378.828 4.29696 368.136 0 356.094 0C344.119 0 333.428 4.29696 325.988 12.0981C319.054 19.3683 315.659 28.8917 316.17 39.6384C316.961 56.2997 326.691 73.1954 339.801 82.5066C334.643 82.7544 331.625 84.7024 330.41 87.0502C329.228 89.3309 329.802 91.9592 331.835 93.5934C333.011 94.5376 334.719 95.1625 336.875 95.1625C339.447 95.1625 342.659 94.2633 346.357 91.9659L344.157 97.5909C343.916 98.2072 343.996 98.9016 344.368 99.4466C344.74 99.9921 345.359 100.319 346.019 100.319H354.28C354.784 104.261 356.921 108.328 360.514 112.302H366.147C362.871 109.345 359.122 105.044 358.311 100.319H366.238C366.898 100.319 367.517 99.9921 367.889 99.4466C368.261 98.9016 368.341 98.2072 368.099 97.5909L365.901 91.969C369.592 94.2571 372.8 95.1539 375.37 95.1539C377.529 95.1539 379.242 94.5278 380.42 93.5793C382.452 91.945 383.023 89.3155 381.84 87.036C380.623 84.6914 377.61 82.7471 372.467 82.4992C385.571 73.1862 395.296 56.2954 396.086 39.6384Z" fill="white"/>
</svg>
