<svg xmlns="http://www.w3.org/2000/svg" width="771" height="246" fill="none"><path fill="#fff" d="M460.4 112.2h16.4v95.5h-16.4v-95.5Zm8-16.7c-2 0-3.8-.3-5.5-.8a13 13 0 0 1-4.3-2 11 11 0 0 1-2.9-3.2 8.7 8.7 0 0 1 0-8.2c.8-1.2 1.8-2.4 3-3.3 1.2-1 2.7-1.7 4.4-2.3a17.5 17.5 0 0 1 15 2.3c1.2 1 2.2 2 2.9 3.4.7 1.3 1 2.7 1 4.2 0 1.4-.3 2.7-1 4a9.8 9.8 0 0 1-2.8 3 13 13 0 0 1-4.3 2.1c-1.7.5-3.5.8-5.5.8Zm-8 16.7h16.4v95.5h-16.4v-95.5ZM576.9 144h-15.7c-1-5.9-3.2-10.8-6.6-14.7-3.4-4-8.8-5.9-16.4-5.9-10.2 0-17.6 5-22 15a59.8 59.8 0 0 0-4.3 24.2c0 9.6 2 17.7 6 24.3 4.1 6.5 10.5 9.8 19.3 9.8 6.6 0 12-2 15.8-6 4-4.2 6.7-9.8 8.2-17h15.7c-1.8 12.8-6.3 22.1-13.5 28a42 42 0 0 1-27.5 8.8 36.8 36.8 0 0 1-30-13.7 52.8 52.8 0 0 1-11.2-34.4c0-16.9 4-30 12.3-39.3 8.1-9.4 18.6-14.1 31.2-14.1 10.8 0 19.6 2.6 26.4 7.9 6.8 5.2 10.9 14.3 12.3 27.1ZM659.7 159.2c0-7.7-1-14.3-3.3-19.7-4.2-10.6-11.8-16-23-16-11 0-18.7 5.7-22.9 16.8-2.2 6-3.3 13.6-3.3 22.8 0 7.4 1.1 13.7 3.3 19 4.2 9.8 11.9 14.8 23 14.8a23 23 0 0 0 18.7-9.4c5-6.3 7.5-15.8 7.5-28.3Zm-68-47h15.7V125c3.2-4.3 6.8-7.7 10.6-10a34 34 0 0 1 19.2-5.5 36 36 0 0 1 27.7 12.6c7.5 8.3 11.3 20.2 11.3 35.6 0 21-5.4 35.9-16.4 44.8a37 37 0 0 1-24.2 8.6c-7.2 0-13.3-1.6-18.2-4.8a42 42 0 0 1-9.5-9.2v49h-16.2V112.2ZM770.8 144H755c-1-5.9-3.1-10.8-6.6-14.7-3.4-4-8.8-5.9-16.4-5.9-10.2 0-17.6 5-22 15a59.8 59.8 0 0 0-4.3 24.2c0 9.6 2 17.7 6.1 24.3 4 6.5 10.5 9.8 19.2 9.8 6.7 0 12-2 15.8-6 4-4.2 6.7-9.8 8.2-17h15.7c-1.8 12.8-6.3 22.1-13.5 28a42 42 0 0 1-27.5 8.8 36.8 36.8 0 0 1-30-13.7 52.8 52.8 0 0 1-11.2-34.4c0-16.9 4-30 12.3-39.3 8.2-9.4 18.6-14.1 31.2-14.1 10.9 0 19.6 2.6 26.4 7.9 6.8 5.2 10.9 14.3 12.3 27.1ZM23.5 234.3c-.5 0-1 0-1.5.2-.4.2-.7.3-1 .6-.3.2-.5.4-.6.7-.2.2-.2.4-.2.7l.1.6.6.6 1 .5c1 .2 2.3.2 3.2 0l1-.5.6-.6.1-.6c0-.3 0-.5-.2-.7-.1-.3-.3-.5-.6-.7-.3-.3-.6-.5-1-.6l-1.5-.2Zm0 8c-1 0-1.8 0-2.7-.3a7 7 0 0 1-2.3-1.1 6 6 0 0 1-1.6-1.9 5.4 5.4 0 0 1 0-5.1c.4-.8 1-1.4 1.6-2 .7-.5 1.4-1 2.3-1.2a9 9 0 0 1 5.4 0c.9.3 1.6.7 2.3 1.2.7.6 1.2 1.2 1.7 2a5.4 5.4 0 0 1 0 5.1 6 6 0 0 1-1.7 1.9 7 7 0 0 1-2.3 1.1c-.8.2-1.7.4-2.7.4ZM45.6 229.2c-.6 0-1.3.1-1.9.3l-1.4.7-.8 1c-.2.3-.3.7-.3 1 0 .4.1.7.3 1l.7.8c.4.3.9.5 1.4.6 1.2.4 2.8.4 4 0 .6-.1 1-.3 1.4-.6l.8-.9.2-.9c0-.3-.1-.7-.3-1l-.8-1-1.4-.7a6 6 0 0 0-1.9-.3Zm0 9.7c-1 0-2.1-.1-3-.4a8 8 0 0 1-2.8-1.3A7 7 0 0 1 38 235c-.5-.9-.8-1.8-.8-2.9 0-1 .3-2 .8-2.9.4-.9 1-1.6 1.9-2.2.7-.6 1.6-1 2.6-1.4 2-.6 4.3-.6 6.2 0 1 .3 2 .8 2.7 1.4.7.6 1.4 1.4 1.8 2.2a6.1 6.1 0 0 1 0 5.8 7 7 0 0 1-1.8 2 8 8 0 0 1-2.7 1.4c-1 .3-2 .4-3 .4ZM70.2 224c-.8 0-1.6 0-2.4.3-.7.3-1.3.6-1.8 1-.4.3-.8.8-1 1.3a3 3 0 0 0-.4 1.4c0 .5 0 .9.3 1.3.2.4.6.8 1 1.1.5.4 1 .7 1.8.9 1.5.4 3.5.4 5 0 .7-.2 1.3-.5 1.8-.9.5-.3.8-.7 1-1.1.3-.4.4-.8.4-1.3s-.2-1-.4-1.4c-.3-.5-.6-1-1.1-1.3-.5-.4-1.1-.7-1.8-1-.7-.2-1.5-.3-2.4-.3Zm0 11.6c-1.3 0-2.5-.2-3.6-.5a9.3 9.3 0 0 1-3-1.5 7.9 7.9 0 0 1-2.2-2.4 7 7 0 0 1 0-6.6c.5-1 1.3-1.8 2.2-2.5.8-.7 1.9-1.2 3-1.6 2.3-.7 5-.7 7.2 0 1.2.4 2.2 1 3 1.6 1 .7 1.7 1.6 2.2 2.6a7 7 0 0 1 0 6.5c-.5 1-1.2 1.7-2 2.4-1 .7-2 1.2-3.1 1.5a13 13 0 0 1-3.7.5ZM83.9 159a2 2 0 0 1-3.4-1.6c.2-2.4-.4-4-1.9-4.9-2.7-1.7-8.4-1-12.3 1.5-1.4.9-3.7 2.8-3.4 5.2a2 2 0 0 1-4 .5c-1-7.6-5-10-8.2-10.6a14.5 14.5 0 0 0-14.6 6.6c-2.4 4-1.6 8.7 2.1 13a2 2 0 0 1-1 3.3c-14.2 3.2-18.6 9.8-18 15 .6 6.1 8.5 12.6 21.8 12.6a2 2 0 0 1 2 2c0 2.7.9 4.8 2.1 6.4h60c8.6 0 15.7-7 15.7-15.8v-35.5a27 27 0 0 0-37 2.3Z"/><path fill="#fff" d="M15.2 187.4C14.5 181 19 173 33.3 169a14 14 0 0 1-.7-15.2c3.7-6.3 11.8-10 18.9-8.5 4.4.9 7.8 3.7 9.7 8a14 14 0 0 1 3-2.6c4.5-2.9 11.8-4.4 16.5-1.5 1.7 1 2.8 2.5 3.4 4.3 12-9.6 26.6-8.4 36.7-1.7v-23.6c0-8.7-7.1-15.8-15.8-15.8H15.8C7.1 112.3 0 119.4 0 128v64.1C0 201 7.1 208 15.8 208h24.7a14 14 0 0 1-1.4-4.4c-14.6-.6-23-8.5-24-16.2Z"/><path fill="#fff" d="M128.2 182.5c7.5-9.5 4.1-20.4-3-27.3a30.8 30.8 0 0 0-4.4-3.5v5l1.6 1.4c5.6 5.4 9.4 14.7 1.6 23.2a2 2 0 0 0 .1 2.9c6 5.1 6.3 15 .8 23-7.2 10.5-24.2 16.9-50.2 3a2 2 0 0 0-2.1.3c-5.8 4.4-15.5 5-22.6 1.5a14 14 0 0 1-4.9-4h-4.6c1.4 3.1 4 5.7 7.7 7.6 8 4 18.7 3.4 25.7-1.2a62.2 62.2 0 0 0 28.2 7.8c12.4 0 21.2-5.5 26.1-12.7 6.2-9 6-20.3 0-27ZM196 141.8a2 2 0 0 1 1.2 1.6l2.1 17.5h7.6v-20.6c0-.6.3-1.2.8-1.5l3.5-2.7-10.5-3.2a2 2 0 0 1-.3-3.7l10-4.4-8.7-2.6a2 2 0 0 1-1-3.2l6.2-6.7h-31.2c.5 12.9 8.3 24.4 20.3 29.5Z"/><path fill="#fff" d="M216.8 122.5a2 2 0 0 1 .2 3.7l-10 4.5 9 2.7a2 2 0 0 1 .7 3.4l-5.9 4.5V161h8.3l2.1-17.4a2 2 0 0 1 1.2-1.6 33.5 33.5 0 0 0 20.3-29.6h-30.4l-6.5 7 11 3.2Z"/><path fill="#fff" d="M221.1 173.4h-23.8a2 2 0 1 1 0-4h23.8a2 2 0 1 1 0 4Zm0 7.6h-23.8a2 2 0 0 1 0-4h23.8a2 2 0 1 1 0 4Zm0 7.7h-23.8a2 2 0 1 1 0-4h23.8a2 2 0 1 1 0 4Zm-7.6 7.6H205a2 2 0 0 1 0-4h8.5a2 2 0 1 1 0 4Zm40.5-84h-7.3A37.5 37.5 0 0 1 225 145l-2.2 18.2a2 2 0 0 1-2 1.7h-23.2a2 2 0 0 1-2-1.7l-2.2-18.2a37.5 37.5 0 0 1-21.7-32.7h-7c-8.6 0-15.7 7.1-15.7 15.8v64.1c0 8.7 7 15.8 15.8 15.8H254c8.7 0 15.8-7 15.8-15.8v-64.1c0-8.7-7.1-15.8-15.8-15.8ZM173 97.5a2 2 0 0 1-.8-.2l-21.4-8.8a2 2 0 1 1 1.6-3.8l21.4 8.8a2 2 0 0 1-.8 4ZM181.5 84.8a2 2 0 0 1-1.4-.6L163.9 68a2 2 0 0 1 0-2.9 2 2 0 0 1 3 0l16 16.2a2 2 0 0 1-1.4 3.5ZM194.2 76.3a2 2 0 0 1-1.9-1.3l-8.6-21a2 2 0 1 1 3.8-1.6l8.6 21a2 2 0 0 1-1.9 3ZM209.2 73.3a2 2 0 0 1-2-2V48.6a2 2 0 1 1 4 0v22.7c0 1.1-.8 2-2 2ZM224.2 76.3a2 2 0 0 1-1.9-2.8l8.7-21.1a2 2 0 0 1 3.8 1.6l-8.7 21a2 2 0 0 1-1.9 1.3ZM237 84.8a2 2 0 0 1-2.1-2c0-.6.2-1.1.6-1.5l16.3-16.4a2 2 0 1 1 3 3l-16.4 16.3a2 2 0 0 1-1.5.6ZM245.4 97.5a2 2 0 0 1-.8-4l21.8-9a2 2 0 1 1 1.5 3.8l-21.7 9a2 2 0 0 1-.8.2ZM403 112.3H366a48.6 48.6 0 0 0 6.7 5c16 10.3 23.4 21.7 22.1 34-1.4 14.3-14.5 29.3-39 44.3-8.3 5.1-16.5 9.3-23 12.4h70c8.7 0 15.8-7 15.8-15.8v-64.1c0-8.7-7-15.8-15.8-15.8Z"/><path fill="#fff" d="M391 150.9c1-10.6-5.8-20.8-20.3-30.2-2-1.3-6.5-4.3-10.2-8.4h-46.8c-8.7 0-15.8 7.1-15.8 15.8v64.1c0 8.7 7.1 15.8 15.8 15.8h9.6c15.9-7 65-30.6 67.7-57.1ZM360.8 84.2a2 2 0 0 0-.7.4 2 2 0 0 0-.5.6l-.1.4V86.8l3.8 9.5H349l3.8-9.5v-1.5h-.1a2 2 0 0 0-.4-.7h-.1a2 2 0 0 0-.6-.4c-16.7-5.8-30.4-25.4-31.3-44.8a32.5 32.5 0 0 1 8.7-24.5 37 37 0 0 1 27.3-11 37 37 0 0 1 27.2 11c6.1 6.4 9.1 15 8.7 24.5-1 19.4-14.7 39-31.3 44.8Zm17.5 4.7c.4.7 0 1.2-.4 1.6-1.3 1-5.5 1.6-12.1-3.4 7.6-1.5 11.6 0 12.5 1.8Zm-44 1.6c-.4-.3-.7-.9-.3-1.6.6-1.2 2.9-2.4 7-2.4 1.5 0 3.3.2 5.4.6-6.6 5-10.7 4.4-12 3.4Zm61.8-50.9a36.4 36.4 0 0 0-9.8-27.5A41 41 0 0 0 356 0 41 41 0 0 0 326 12.1a36.4 36.4 0 0 0-9.8 27.5 58.4 58.4 0 0 0 23.6 43c-5.2.2-8.2 2.1-9.4 4.5-1.2 2.2-.6 4.9 1.4 6.5a8 8 0 0 0 5 1.6c2.6 0 5.9-1 9.6-3.2l-2.2 5.6a2 2 0 0 0 1.8 2.7h8.3c.5 4 2.6 8 6.2 12h5.6c-3.2-3-7-7.3-7.8-12h8a2 2 0 0 0 1.8-2.7l-2.2-5.6c3.7 2.3 6.9 3.2 9.5 3.2a8 8 0 0 0 5-1.6c2-1.7 2.6-4.3 1.4-6.6-1.2-2.3-4.2-4.3-9.3-4.5A58.4 58.4 0 0 0 396 39.6Z"/></svg>